<svg class="db client-logo" xmlns="http://www.w3.org/2000/svg" viewBox="0 0 110 76"><path fill="#CFCFCF" fill-rule="evenodd" d="M15.132 13.35h19.352c12.077 0 19.17 7.763 19.17 24.523 0 17.848-7.42 24.995-19.17 24.995H15.132V13.35zm43.942 0h21.644c9.057 0 13.604 5.441 13.604 11.717 0 8.235-4.838 11.028-8.585 11.827v.217c5.602.726 10.658 4.68 10.658 12.262-.036 8.162-5.965 13.495-17.023 13.495H59.074V13.35zM27.1 21.113h4.256c6.875 0 10.512 4.934 10.512 16.542 0 13.314-4.256 17.304-10.294 17.304H27.1V21.113zm43.833-.072h4.583c4.692 0 6.62 2.611 6.62 5.659 0 3.7-2 6.276-6.693 6.276h-4.51V21.04zm0 21.258h5.638c5.565 0 7.057 2.684 7.057 6.203 0 4.1-2.983 6.457-6.984 6.457h-5.711V42.3zM11.24 0h87.484C104.944 0 110 5.006 110 11.21v53.544C110 70.958 104.944 76 98.724 76H11.24C5.02 76 0 70.958 0 64.754V11.21C0 5.006 5.02 0 11.24 0zm.146 7.654h87.228a3.488 3.488 0 013.492 3.483v53.69a3.488 3.488 0 01-3.492 3.482H11.386a3.488 3.488 0 01-3.492-3.482v-53.69a3.488 3.488 0 013.492-3.483z"/></svg>