<svg xmlns="http://www.w3.org/2000/svg" viewBox="-45 818 712 231" width="712" height="231"><g fill="none"><path fill="#80ff80" d="M-44 1017h710v31H-44z"/><path stroke="#000" stroke-linecap="round" stroke-linejoin="round" d="M-44 1017h710v31H-44z"/><text transform="translate(-39 1022.5)" fill="#000"><tspan font-family="Helvetica Neue" font-size="16" font-weight="400" x="313.856" y="15">Processor</tspan></text><path fill="#ff0" d="M248 975.739h131v31H248z"/><path stroke="#000" stroke-linecap="round" stroke-linejoin="round" d="M248 975.739h131v31H248z"/><text transform="translate(253 981.24)" fill="#000"><tspan font-family="Helvetica Neue" font-size="16" font-weight="400" x="4.66" y="15">ServiceRegistry</tspan></text><path fill="#ff0" d="M248 818.5h24.903v157.239H248z"/><path stroke="#000" stroke-linecap="round" stroke-linejoin="round" d="M248 818.5h24.903v157.239H248z"/><text transform="rotate(-90 610.596 360.144)" fill="#000"><tspan font-family="Helvetica Neue" font-size="16" font-weight="400" x="31.1" y="15">Generator 1</tspan></text><path fill="#ff0" d="M354.097 818.5H379v157.239h-24.903z"/><path stroke="#000" stroke-linecap="round" stroke-linejoin="round" d="M354.097 818.5H379v157.239h-24.903z"/><text transform="rotate(-90 663.644 307.096)" fill="#000"><tspan font-family="Helvetica Neue" font-size="16" font-weight="400" x="31.1" y="15">Generator n</tspan></text><path fill="#ff0" d="M301.048 818.5h24.903v157.239h-24.903z"/><path stroke="#000" stroke-linecap="round" stroke-linejoin="round" d="M301.048 818.5h24.903v157.239h-24.903z"/><text transform="rotate(-90 637.12 333.62)" fill="#000"><tspan font-family="Helvetica Neue" font-size="16" font-weight="400" x="31.1" y="15">Generator 2</tspan></text><path fill="#7ebcd8" d="M391 975.739h131v31H391z"/><path stroke="#000" stroke-linecap="round" stroke-linejoin="round" d="M391 975.739h131v31H391z"/><text transform="translate(396 981.24)" fill="#000"><tspan font-family="Helvetica Neue" font-size="16" font-weight="400" x="18.284" y="15">Writer Array</tspan></text><path fill="#7ebcd8" d="M444.048 818.5h24.903v157.239h-24.903z"/><path stroke="#000" stroke-linecap="round" stroke-linejoin="round" d="M444.048 818.5h24.903v157.239h-24.903z"/><text transform="rotate(-90 708.62 262.12)" fill="#000"><tspan font-family="Helvetica Neue" font-size="16" font-weight="400" x="45.764" y="15">Writer 2</tspan></text><path fill="#7ebcd8" d="M391 818.5h24.903v157.239H391z"/><path stroke="#000" stroke-linecap="round" stroke-linejoin="round" d="M391 818.5h24.903v157.239H391z"/><text transform="rotate(-90 682.096 288.644)" fill="#000"><tspan font-family="Helvetica Neue" font-size="16" font-weight="400" x="45.764" y="15">Writer 1</tspan></text><path fill="#7ebcd8" d="M497.096 818.5h24.903v157.239h-24.903z"/><path stroke="#000" stroke-linecap="round" stroke-linejoin="round" d="M497.096 818.5h24.903v157.239h-24.903z"/><text transform="rotate(-90 735.144 235.596)" fill="#000"><tspan font-family="Helvetica Neue" font-size="16" font-weight="400" x="45.764" y="15">Writer n</tspan></text><path fill="#ffc0c0" d="M-44 975.739h280v31H-44z"/><path stroke="#000" stroke-linecap="round" stroke-linejoin="round" d="M-44 975.739h280v31H-44z"/><text transform="translate(-39 981.24)" fill="#000"><tspan font-family="Helvetica Neue" font-size="16" font-weight="400" x="84.192" y="15">File Processor</tspan></text><path fill="#d3e1b3" d="M-44 934.479H87v31H-44z"/><path stroke="#000" stroke-linecap="round" stroke-linejoin="round" d="M-44 934.479H87v31H-44z"/><text transform="translate(-39 939.979)" fill="#000"><tspan font-family="Helvetica Neue" font-size="16" font-weight="400" x="11.892" y="15">Importer Map</tspan></text><path fill="#d3e1b3" d="M-44 819h24.903v115.479H-44z"/><path stroke="#000" stroke-linecap="round" stroke-linejoin="round" d="M-44 819h24.903v115.479H-44z"/><text transform="rotate(-90 443.965 485.513)" fill="#000"><tspan font-family="Helvetica Neue" font-size="16" font-weight="400" x="5.627" y="15">File Reader 1</tspan></text><path fill="#d3e1b3" d="M62.097 819H87v115.479H62.097z"/><path stroke="#000" stroke-linecap="round" stroke-linejoin="round" d="M62.097 819H87v115.479H62.097z"/><text transform="rotate(-90 497.013 432.465)" fill="#000"><tspan font-family="Helvetica Neue" font-size="16" font-weight="400" x="5.627" y="15">File Reader n</tspan></text><path fill="#d3e1b3" d="M9.048 819h24.903v115.479H9.048z"/><path stroke="#000" stroke-linecap="round" stroke-linejoin="round" d="M9.048 819h24.903v115.479H9.048z"/><text transform="rotate(-90 470.49 458.99)" fill="#000"><tspan font-family="Helvetica Neue" font-size="16" font-weight="400" x="5.627" y="15">File Reader 2</tspan></text><path fill="#c6001d" d="M105 934.479h131v31H105z"/><path stroke="#000" stroke-linecap="round" stroke-linejoin="round" d="M105 934.479h131v31H105z"/><text transform="translate(110 939.979)" fill="#fff"><tspan font-family="Helvetica Neue" font-size="16" font-weight="400" x="19.164" y="15">Parser Map</tspan></text><path fill="#c6001d" d="M105 819h24.903v115.479H105z"/><path stroke="#000" stroke-linecap="round" stroke-linejoin="round" d="M105 819h24.903v115.479H105z"/><text transform="rotate(-90 518.465 411.013)" fill="#fff"><tspan font-family="Helvetica Neue" font-size="16" font-weight="400" x="1.923" y="15">Table Parser 1</tspan></text><path fill="#c6001d" d="M211.097 819H236v115.479h-24.903z"/><path stroke="#000" stroke-linecap="round" stroke-linejoin="round" d="M211.097 819H236v115.479h-24.903z"/><text transform="rotate(-90 571.513 357.965)" fill="#fff"><tspan font-family="Helvetica Neue" font-size="16" font-weight="400" x="1.923" y="15">Table Parser n</tspan></text><path fill="#c6001d" d="M158.048 819h24.903v115.479h-24.903z"/><path stroke="#000" stroke-linecap="round" stroke-linejoin="round" d="M158.048 819h24.903v115.479h-24.903z"/><text transform="rotate(-90 544.99 384.49)" fill="#fff"><tspan font-family="Helvetica Neue" font-size="16" font-weight="400" x="1.923" y="15">Table Parser 2</tspan></text><path fill="#ff8080" d="M535 976.239h131v31H535z"/><path stroke="#000" stroke-linecap="round" stroke-linejoin="round" d="M535 976.239h131v31H535z"/><text transform="translate(540 981.74)" fill="#000"><tspan font-family="Helvetica Neue" font-size="16" font-weight="400" x="24.644" y="15">Filter Map</tspan></text><path fill="#ff8080" d="M588.048 819h24.903v157.239h-24.903z"/><path stroke="#000" stroke-linecap="round" stroke-linejoin="round" d="M588.048 819h24.903v157.239h-24.903z"/><text transform="rotate(-90 780.87 190.37)" fill="#000"><tspan font-family="Helvetica Neue" font-size="16" font-weight="400" x="49.324" y="15">Filter 2</tspan></text><path fill="#ff8080" d="M535 819h24.903v157.239H535z"/><path stroke="#000" stroke-linecap="round" stroke-linejoin="round" d="M535 819h24.903v157.239H535z"/><text transform="rotate(-90 754.346 216.894)" fill="#000"><tspan font-family="Helvetica Neue" font-size="16" font-weight="400" x="49.324" y="15">Filter 1</tspan></text><path fill="#ff8080" d="M641.096 819h24.903v157.239h-24.903z"/><path stroke="#000" stroke-linecap="round" stroke-linejoin="round" d="M641.096 819h24.903v157.239h-24.903z"/><text transform="rotate(-90 807.394 163.845)" fill="#000"><tspan font-family="Helvetica Neue" font-size="16" font-weight="400" x="49.324" y="15">Filter n</tspan></text></g></svg>