<svg xmlns="http://www.w3.org/2000/svg" viewBox="-449 469 352 311" width="352" height="311"><defs><marker orient="auto" overflow="visible" markerUnits="strokeWidth" id="a" stroke-linejoin="miter" stroke-miterlimit="10" viewBox="-1 -4 10 8" markerWidth="10" markerHeight="8" color="#000"><path d="M8 0L0-3v6z" fill="currentColor" stroke="currentColor"/></marker></defs><g fill="none"><path fill="#c0ffff" d="M-331 502h202.5v25H-331z"/><path stroke="#000" stroke-linecap="round" stroke-linejoin="round" d="M-331 502h202.5v25H-331z"/><text transform="translate(-326 505.276)" fill="#000"><tspan font-family="Helvetica Neue" font-size="16" font-weight="400" x="61.73" y="15">loadStore</tspan></text><path fill="#80ff80" d="M-448 470h31v309h-31z"/><path stroke="#000" stroke-linecap="round" stroke-linejoin="round" d="M-448 470h31v309h-31z"/><text transform="rotate(-90 166.138 607.862)" fill="#000"><tspan font-family="Helvetica Neue" font-size="16" font-weight="400" x="113.356" y="15">Processor</tspan></text><path fill="#80ff80" d="M-128.5 470h31v309h-31z"/><path stroke="#000" stroke-linecap="round" stroke-linejoin="round" d="M-128.5 470h31v309h-31z"/><text transform="rotate(-90 325.888 448.112)" fill="#000"><tspan font-family="Helvetica Neue" font-size="16" font-weight="400" x="113.652" y="15">Generator</tspan></text><path fill="#c0ffff" d="M-330.5 722h202v25h-202z"/><path stroke="#000" stroke-linecap="round" stroke-linejoin="round" d="M-330.5 722h202v25h-202z"/><text transform="translate(-325.5 725.276)" fill="#000"><tspan font-family="Helvetica Neue" font-size="16" font-weight="400" x="60.296" y="15">saveStore</tspan></text><path fill="#c0ffff" d="M-417 568h25v113h-25z"/><path stroke="#000" stroke-linecap="round" stroke-linejoin="round" d="M-417 568h25v113h-25z"/><text transform="rotate(-90 131.138 544.862)" fill="#000"><tspan font-family="Helvetica Neue" font-size="16" font-weight="400" x="1.124" y="15">test case loop</tspan></text><path fill="#c0ffff" d="M-331 568h202v25h-202z"/><path stroke="#000" stroke-linecap="round" stroke-linejoin="round" d="M-331 568h202v25h-202z"/><text transform="translate(-326 571.276)" fill="#000"><tspan font-family="Helvetica Neue" font-size="16" font-weight="400" x="64.592" y="15">generate</tspan></text><path fill="#c0ffff" d="M-330.5 612h202v25h-202z"/><path stroke="#000" stroke-linecap="round" stroke-linejoin="round" d="M-330.5 612h202v25h-202z"/><text transform="translate(-325.5 615.276)" fill="#000"><tspan font-family="Helvetica Neue" font-size="16" font-weight="400" x="6.96" y="15">createPostProcessTodos</tspan></text><path fill="#c0ffff" d="M-330.5 656h202v25h-202z"/><path stroke="#000" stroke-linecap="round" stroke-linejoin="round" d="M-330.5 656h202v25h-202z"/><text transform="translate(-325.5 659.276)" fill="#000"><tspan font-family="Helvetica Neue" font-size="16" font-weight="400" x="51.256" y="15">postProcess</tspan></text><path marker-end="url(#a)" stroke="#000" stroke-linecap="round" stroke-linejoin="round" d="M-417 512.695l76.1.734m-51.1 66.655l51.1.131m-51.1 44.556l51.6-.086m-51.6 42.922l51.6.284m-76.6 67.112l76.6-.206"/></g></svg>