<svg xmlns="http://www.w3.org/2000/svg" viewBox="-449 469 570 595" width="570" height="595"><defs><marker orient="auto" overflow="visible" markerUnits="strokeWidth" id="a" stroke-linejoin="miter" stroke-miterlimit="10" viewBox="-1 -4 10 8" markerWidth="10" markerHeight="8" color="#000"><path d="M8 0L0-3v6z" fill="currentColor" stroke="currentColor"/></marker></defs><g fill="none"><path fill="#ff0" d="M-148.337 625.981h237.5v24.903h-237.5z"/><path stroke="#000" stroke-linecap="round" stroke-linejoin="round" d="M-148.337 625.981h237.5v24.903h-237.5z"/><text transform="translate(-143.337 628.433)" fill="#000"><tspan font-family="Helvetica Neue" font-size="16" font-weight="400" x="0" y="15">loadStore</tspan></text><path fill="#80ff80" d="M-448 470h31v593h-31z"/><path stroke="#000" stroke-linecap="round" stroke-linejoin="round" d="M-448 470h31v593h-31z"/><text transform="rotate(-90 307.75 750.25)" fill="#000"><tspan font-family="Helvetica Neue" font-size="16" font-weight="400" x="255.356" y="15">Processor</tspan></text><path fill="#ff0" d="M-148.576 1021.789h237.5v24.903h-237.5z"/><path stroke="#000" stroke-linecap="round" stroke-linejoin="round" d="M-148.576 1021.789h237.5v24.903h-237.5z"/><text transform="translate(-143.576 1024.24)" fill="#000"><tspan font-family="Helvetica Neue" font-size="16" font-weight="400" x="0" y="15">saveStore</tspan></text><path fill="#ff0" d="M-148.816 785.721H88.923v24.903h-237.739z"/><path stroke="#000" stroke-linecap="round" stroke-linejoin="round" d="M-148.816 785.721H88.923v24.903h-237.739z"/><text transform="translate(-143.816 788.173)" fill="#000"><tspan font-family="Helvetica Neue" font-size="16" font-weight="400" x="0" y="15">generate</tspan></text><path fill="#ff0" d="M-148.816 825.596H88.923v24.903h-237.739z"/><path stroke="#000" stroke-linecap="round" stroke-linejoin="round" d="M-148.816 825.596H88.923v24.903h-237.739z"/><text transform="translate(-143.816 828.048)" fill="#000"><tspan font-family="Helvetica Neue" font-size="16" font-weight="400" x="0" y="15">createPostProcessTodos</tspan></text><path fill="#ff0" d="M-147.751 865.472H89.163v24.903h-236.914z"/><path stroke="#000" stroke-linecap="round" stroke-linejoin="round" d="M-147.751 865.472H89.163v24.903h-236.914z"/><text transform="translate(-142.75 867.924)" fill="#000"><tspan font-family="Helvetica Neue" font-size="16" font-weight="400" x="0" y="15">postProcess</tspan></text><path fill="#c0ffff" d="M-392 491h146v25h-146z"/><path stroke="#000" stroke-linecap="round" stroke-linejoin="round" d="M-392 491h146v25h-146z"/><text transform="translate(-387 493.5)" fill="#000"><tspan font-family="Helvetica Neue" font-size="16" font-weight="400" x="4.304" y="15">generatorRegistry</tspan></text><path fill="#c0ffff" d="M-417 481h25v96h-25z"/><path stroke="#000" stroke-linecap="round" stroke-linejoin="round" d="M-417 481h25v96h-25z"/><text transform="rotate(-90 78.75 493.25)" fill="#000"><tspan font-family="Helvetica Neue" font-size="16" font-weight="400" x="1.96" y="15">constructor</tspan></text><path fill="#c0ffff" d="M-392 538.531h146v25h-146z"/><path stroke="#000" stroke-linecap="round" stroke-linejoin="round" d="M-392 538.531h146v25h-146z"/><text transform="translate(-387 541.031)" fill="#000"><tspan font-family="Helvetica Neue" font-size="16" font-weight="400" x="48.016" y="15">writer</tspan></text><path fill="#c0ffff" d="M-417 586.063h171v25h-171z"/><path stroke="#000" stroke-linecap="round" stroke-linejoin="round" d="M-417 586.063h171v25h-171z"/><text transform="translate(-412 588.563)" fill="#000"><tspan font-family="Helvetica Neue" font-size="16" font-weight="400" x="58.868" y="15">tables</tspan></text><path fill="#c0ffff" d="M-417 618h25v434.834h-25z"/><path stroke="#000" stroke-linecap="round" stroke-linejoin="round" d="M-417 618h25v434.834h-25z"/><text transform="rotate(-90 316.667 731.167)" fill="#000"><tspan font-family="Helvetica Neue" font-size="16" font-weight="400" x="183.969" y="15">process</tspan></text><path fill="#c0ffff" d="M-392 714.618h25v242.06h-25z"/><path stroke="#000" stroke-linecap="round" stroke-linejoin="round" d="M-392 714.618h25v242.06h-25z"/><text transform="rotate(-90 281.089 670.589)" fill="#000"><tspan font-family="Helvetica Neue" font-size="16" font-weight="400" x="76.47" y="15">loop tables</tspan></text><path fill="#c0ffff" d="M-367 736.376h25V934.92h-25z"/><path stroke="#000" stroke-linecap="round" stroke-linejoin="round" d="M-367 736.376h25V934.92h-25z"/><text transform="rotate(-90 282.71 647.21)" fill="#000"><tspan font-family="Helvetica Neue" font-size="16" font-weight="400" x="39.896" y="15">loop test cases</tspan></text><path fill="#7ebcd8" d="M-147.751 670.44H41v24.903h-188.751z"/><path stroke="#000" stroke-linecap="round" stroke-linejoin="round" d="M-147.751 670.44H41v24.903h-188.751z"/><text transform="translate(-142.75 672.892)" fill="#000"><tspan font-family="Helvetica Neue" font-size="16" font-weight="400" x="0" y="15">before</tspan></text><path fill="#7ebcd8" d="M-148.816 976.674H41v24.903h-189.816z"/><path stroke="#000" stroke-linecap="round" stroke-linejoin="round" d="M-148.816 976.674H41v24.903h-189.816z"/><text transform="translate(-143.816 979.125)" fill="#000"><tspan font-family="Helvetica Neue" font-size="16" font-weight="400" x="0" y="15">after</tspan></text><path fill="#7ebcd8" d="M-148.283 905.348H41v24.903h-189.283z"/><path stroke="#000" stroke-linecap="round" stroke-linejoin="round" d="M-148.283 905.348H41v24.903h-189.283z"/><text transform="translate(-143.283 907.8)" fill="#000"><tspan font-family="Helvetica Neue" font-size="16" font-weight="400" x="0" y="15">write</tspan></text><path marker-end="url(#a)" stroke="#000" stroke-linecap="round" stroke-linejoin="round" d="M-342 877.371l184.349.326M-342 756.7l183.284 1.019M-342 835.648l183.285 1.41"/><path fill="#80ff80" d="M88.576 470.5h31v140.567h-31z"/><path stroke="#000" stroke-linecap="round" stroke-linejoin="round" d="M88.576 470.5h31v140.567h-31z"/><text transform="rotate(-90 350.072 255.995)" fill="#000"><tspan font-family="Helvetica Neue" font-size="16" font-weight="400" x="54.764" y="15">init</tspan></text><path marker-end="url(#a)" stroke="#000" stroke-linecap="round" stroke-linejoin="round" d="M88.576 501.284l-324.676 1.899m324.676 47.631l-324.676.465m324.676 48.098l-325.224-.503M-342 917.016l183.817.743"/><text transform="translate(-137.612 486)" fill="#000"><tspan font-family="Helvetica Neue" font-size="12" font-weight="400" x="0" y="11">register all the generators</tspan></text><text transform="translate(-113.714 533.284)" fill="#000"><tspan font-family="Helvetica Neue" font-size="12" font-weight="400" x="0" y="11">provide all writer</tspan></text><text transform="translate(-133.178 580.567)" fill="#000"><tspan font-family="Helvetica Neue" font-size="12" font-weight="400" x="0" y="11">set all the loaded tables</tspan></text><path fill="#c0ffff" d="M-392 625.981h146v24.903h-146z"/><path stroke="#000" stroke-linecap="round" stroke-linejoin="round" d="M-392 625.981h146v24.903h-146z"/><text transform="translate(-387 628.433)" fill="#000"><tspan font-family="Helvetica Neue" font-size="16" font-weight="400" x="0" y="15">loop generators</tspan></text><path fill="#c0ffff" d="M-392 1017.793h146v24.903h-146z"/><path stroke="#000" stroke-linecap="round" stroke-linejoin="round" d="M-392 1017.793h146v24.903h-146z"/><text transform="translate(-387 1020.245)" fill="#000"><tspan font-family="Helvetica Neue" font-size="16" font-weight="400" x="0" y="15">loop generators</tspan></text><path marker-end="url(#a)" stroke="#000" stroke-linecap="round" stroke-linejoin="round" d="M-246 638.433h87.763M-246 1031.253l87.524 1.21"/><path fill="#c0ffff" d="M-392 670.44h146v24.903h-146z"/><path stroke="#000" stroke-linecap="round" stroke-linejoin="round" d="M-392 670.44h146v24.903h-146z"/><text transform="translate(-387 672.892)" fill="#000"><tspan font-family="Helvetica Neue" font-size="16" font-weight="400" x="0" y="15">loop writer</tspan></text><path marker-end="url(#a)" stroke="#000" stroke-linecap="round" stroke-linejoin="round" d="M-246 682.892h88.349"/><path fill="#c0ffff" d="M-392 972.678h146v24.903h-146z"/><path stroke="#000" stroke-linecap="round" stroke-linejoin="round" d="M-392 972.678h146v24.903h-146z"/><text transform="translate(-387 975.13)" fill="#000"><tspan font-family="Helvetica Neue" font-size="16" font-weight="400" x="0" y="15">loop writer</tspan></text><path marker-end="url(#a)" stroke="#000" stroke-linecap="round" stroke-linejoin="round" d="M-246 986.23l87.285 1.315"/><path fill="#ffff40" d="M88.576 620h31v436h-31z"/><path stroke="#000" stroke-linecap="round" stroke-linejoin="round" d="M88.576 620h31v436h-31z"/><text transform="rotate(-90 572.538 478.462)" fill="#000"><tspan font-family="Helvetica Neue" font-size="16" font-weight="400" x="177.152" y="15">Generator</tspan></text><path fill="#7ebcd8" d="M41 663h31v347.674H41z"/><path stroke="#000" stroke-linecap="round" stroke-linejoin="round" d="M41 663h31v347.674H41z"/><text transform="rotate(-90 526.087 479.587)" fill="#000"><tspan font-family="Helvetica Neue" font-size="16" font-weight="400" x="147.653" y="15">Writer</tspan></text><path fill="#ff8080" d="M-148.816 745.749h171v25h-171z"/><path stroke="#000" stroke-linecap="round" stroke-linejoin="round" d="M-148.816 745.749h171v25h-171z"/><text transform="translate(-143.816 748.249)" fill="#000"><tspan font-family="Helvetica Neue" font-size="16" font-weight="400" x="62.876" y="15">Filter</tspan></text><path marker-end="url(#a)" stroke="#000" stroke-linecap="round" stroke-linejoin="round" d="M-342 796.999l183.284.689"/></g></svg>