<svg xmlns="http://www.w3.org/2000/svg" viewBox="-874 76 954 951" width="954" height="951"><defs><marker orient="auto" overflow="visible" markerUnits="strokeWidth" id="a" stroke-linejoin="miter" stroke-miterlimit="10" viewBox="-1 -4 10 8" markerWidth="10" markerHeight="8" color="#000"><path d="M8 0L0-3v6z" fill="currentColor" stroke="currentColor"/></marker></defs><g fill="none"><path fill="#c0ffff" d="M-757 138.5h38.5v345H-757z"/><path stroke="#000" stroke-linecap="round" stroke-linejoin="round" d="M-757 138.5h38.5v345H-757z"/><path fill="#ffffc0" d="M-731.5 269.5h285V299h-285z"/><path stroke="#000" stroke-linecap="round" stroke-linejoin="round" d="M-731.5 269.5h285V299h-285z"/><text transform="translate(-726.5 275.026)" fill="#000"><tspan font-family="Helvetica Neue" font-size="16" font-weight="400" x="14.068" y="15">friend_email: ref:1:Person:email:T1</tspan></text><path fill="#80ff80" d="M-731.5 161h285v29.5h-285z"/><path stroke="#000" stroke-linecap="round" stroke-linejoin="round" d="M-731.5 161h285v29.5h-285z"/><text transform="translate(-726.5 166.526)" fill="#000"><tspan font-family="Helvetica Neue" font-size="16" font-weight="400" x="57.764" y="15">name: gen:faker:name</tspan></text><path fill="#80ff80" d="M-731.5 215.25h285v29.5h-285z"/><path stroke="#000" stroke-linecap="round" stroke-linejoin="round" d="M-731.5 215.25h285v29.5h-285z"/><text transform="translate(-726.5 220.776)" fill="#000"><tspan font-family="Helvetica Neue" font-size="16" font-weight="400" x="59.556" y="15">email: gen:faker:email</tspan></text><text transform="translate(-774.25 81.052)" fill="#000"><tspan font-family="Helvetica Neue" font-size="16" font-weight="400" x=".052" y="15">Person T1</tspan> <tspan font-family="Helvetica Neue" font-size="16" font-weight="400" x="15.012" y="33.448">inst: a</tspan></text><path fill="#ffffc0" d="M-731.5 323.75h285v29.5h-285z"/><path stroke="#000" stroke-linecap="round" stroke-linejoin="round" d="M-731.5 323.75h285v29.5h-285z"/><text transform="translate(-726.5 329.276)" fill="#000"><tspan font-family="Helvetica Neue" font-size="16" font-weight="400" x="36.572" y="15">name: ref:1:Person:name:T1</tspan></text><path fill="#ffffc0" d="M-731.5 378h285v29.5h-285z"/><path stroke="#000" stroke-linecap="round" stroke-linejoin="round" d="M-731.5 378h285v29.5h-285z"/><text transform="translate(-726.5 383.526)" fill="#000"><tspan font-family="Helvetica Neue" font-size="16" font-weight="400" x="62.372" y="15">a: ref::Range2::[T3-4]</tspan></text><path fill="#c0ffff" d="M-119 143h38.5v345H-119z"/><path stroke="#000" stroke-linecap="round" stroke-linejoin="round" d="M-119 143h38.5v345H-119z"/><text transform="translate(-138.75 85.552)" fill="#000"><tspan font-family="Helvetica Neue" font-size="16" font-weight="400" x=".176" y="15">Range2 T3</tspan> <tspan font-family="Helvetica Neue" font-size="16" font-weight="400" x="17.512" y="33.448">inst: c</tspan></text><path fill="#c0ffff" d="M16.25 143h38.5v345h-38.5z"/><path stroke="#000" stroke-linecap="round" stroke-linejoin="round" d="M16.25 143h38.5v345h-38.5z"/><text transform="translate(-3.5 85.552)" fill="#000"><tspan font-family="Helvetica Neue" font-size="16" font-weight="400" x=".176" y="15">Range2 T4</tspan> <tspan font-family="Helvetica Neue" font-size="16" font-weight="400" x="17.064" y="33.448">inst: d</tspan></text><path fill="#c0ffff" d="M-254.25 143h38.5v345h-38.5z"/><path stroke="#000" stroke-linecap="round" stroke-linejoin="round" d="M-254.25 143h38.5v345h-38.5z"/><text transform="translate(-271.5 85.552)" fill="#000"><tspan font-family="Helvetica Neue" font-size="16" font-weight="400" x=".052" y="15">Person T2</tspan> <tspan font-family="Helvetica Neue" font-size="16" font-weight="400" x="14.564" y="33.448">inst: b</tspan></text><path d="M-446.5 282.176c36.166.399 74.004 1.667 106.682 4.551 36.775 3.247 60.674 7.981 76.196 12.676M-446.5 337.098c31.489-.82 64.291-2.08 93.955-4.007 43.165-2.805 70.948-6.454 88.594-9.7M-562.613 407.5c64.45 34.741 232.657 117.527 342.795 100.136 49.381-7.797 78.816-34.425 96.25-65.478" marker-end="url(#a)" stroke="#000" stroke-linecap="round" stroke-linejoin="round"/><path d="M-566.697 407.5c64.024 40.914 253.067 151.674 397.788 133.773 103.376-12.788 155.733-87.711 181.4-147.794" marker-end="url(#a)" stroke="#000" stroke-linecap="round" stroke-linejoin="round"/><path fill="#c0ffff" d="M-757 639h38.5v138H-757z"/><path stroke="#000" stroke-linecap="round" stroke-linejoin="round" d="M-757 639h38.5v138H-757z"/><text transform="translate(-744.75 603.776)" fill="#000"><tspan font-family="Helvetica Neue" font-size="16" font-weight="400" x=".48" y="15">a’</tspan></text><path fill="#c0ffff" d="M-119 639h38.5v138H-119z"/><path stroke="#000" stroke-linecap="round" stroke-linejoin="round" d="M-119 639h38.5v138H-119z"/><path fill="#c0ffff" d="M-254.25 639h38.5v138h-38.5z"/><path stroke="#000" stroke-linecap="round" stroke-linejoin="round" d="M-254.25 639h38.5v138h-38.5z"/><path d="M-718.5 716.511c57.966 24.861 236.047 95.625 385.045 95.625 113.118 0 176.184-40.785 207.542-71.308" marker-end="url(#a)" stroke="#000" stroke-linecap="round" stroke-linejoin="round"/><text transform="translate(-242 603.776)" fill="#000"><tspan font-family="Helvetica Neue" font-size="16" font-weight="400" x=".032" y="15">b’</tspan></text><text transform="translate(-106.75 603.776)" fill="#000"><tspan font-family="Helvetica Neue" font-size="16" font-weight="400" x=".48" y="15">c’</tspan></text><path d="M-718.5 710.823c57.152 8.18 229.157 31.313 346.41 31.313 55.808 0 88.93-5.24 108.574-11.615" marker-end="url(#a)" stroke="#000" stroke-linecap="round" stroke-linejoin="round"/><path fill="#c0ffff" d="M-757 853.136h38.5v138H-757z"/><path stroke="#000" stroke-linecap="round" stroke-linejoin="round" d="M-757 853.136h38.5v138H-757z"/><text transform="translate(-745.75 817.912)" fill="#000"><tspan font-family="Helvetica Neue" font-size="16" font-weight="400" x=".016" y="15">a’’</tspan></text><path fill="#c0ffff" d="M16.25 853.136h38.5v138h-38.5z"/><path stroke="#000" stroke-linecap="round" stroke-linejoin="round" d="M16.25 853.136h38.5v138h-38.5z"/><path fill="#c0ffff" d="M-254.25 853.136h38.5v138h-38.5z"/><path stroke="#000" stroke-linecap="round" stroke-linejoin="round" d="M-254.25 853.136h38.5v138h-38.5z"/><path d="M-718.5 932.098c52.806 26.048 207.858 94.175 385.045 94.175 163.252 0 288.087-57.832 341.1-87.302" marker-end="url(#a)" stroke="#000" stroke-linecap="round" stroke-linejoin="round"/><text transform="translate(-243.5 817.912)" fill="#000"><tspan font-family="Helvetica Neue" font-size="16" font-weight="400" x=".068" y="15">b’’</tspan></text><text transform="translate(28.5 817.912)" fill="#000"><tspan font-family="Helvetica Neue" font-size="16" font-weight="400" x=".032" y="15">d’</tspan></text><path d="M-718.5 924.96c57.152 8.18 229.157 31.313 346.41 31.313 55.808 0 88.93-5.241 108.574-11.616M-718.5 704.81c44.853-7.1 161.017-23.583 272.773-23.583 89.269 0 149.416 10.517 181.88 18.368M-718.5 917.664c41.537-9.124 144.735-29.028 254.523-29.028 94.037 0 163.713 14.603 200.205 24.526" marker-end="url(#a)" stroke="#000" stroke-linecap="round" stroke-linejoin="round"/><text transform="translate(-869 275.276)" fill="#000"><tspan font-family="Helvetica Neue" font-size="16" font-weight="400" x=".032" y="15">Reference 1</tspan></text><text transform="translate(-869 329.026)" fill="#000"><tspan font-family="Helvetica Neue" font-size="16" font-weight="400" x=".032" y="15">Reference 2</tspan></text><text transform="translate(-869 383.776)" fill="#000"><tspan font-family="Helvetica Neue" font-size="16" font-weight="400" x=".032" y="15">Reference 3</tspan></text><text transform="translate(-863.5 698.776)" fill="#000"><tspan font-family="Helvetica Neue" font-size="16" font-weight="400" x=".452" y="15">Instance 1</tspan></text><text transform="translate(-863.5 912.912)" fill="#000"><tspan font-family="Helvetica Neue" font-size="16" font-weight="400" x=".452" y="15">Instance 2</tspan></text></g></svg>