<svg xmlns="http://www.w3.org/2000/svg" viewBox="-574 325 497 128" width="497" height="128"><defs><marker orient="auto" overflow="visible" markerUnits="strokeWidth" id="a" stroke-linejoin="miter" stroke-miterlimit="10" viewBox="-1 -4 10 8" markerWidth="10" markerHeight="8" color="#000"><path d="M8 0L0-3v6z" fill="currentColor" stroke="currentColor"/></marker></defs><g fill="none"><path d="M-483.953 362.742v-25.5h1v-.742h28.053" marker-end="url(#a)" stroke="#000" stroke-linecap="round" stroke-linejoin="round"/><path fill="#c0ffff" d="M-440.455 362.5h56.255v31h-56.255z"/><path stroke="#000" stroke-linecap="round" stroke-linejoin="round" d="M-440.455 362.5h56.255v31h-56.255z"/><text transform="translate(-435.455 371.86)" fill="#000"><tspan font-family="Helvetica Neue" font-size="10" font-weight="400" x="7.388" y="10">Person</tspan></text><path fill="#c0ffff" d="M-375.91 362.5h45.11v31h-45.11z"/><path stroke="#000" stroke-linecap="round" stroke-linejoin="round" d="M-375.91 362.5h45.11v31h-45.11z"/><text transform="translate(-370.91 371.86)" fill="#000"><tspan font-family="Helvetica Neue" font-size="10" font-weight="400" x="5.14" y="10">name</tspan></text><path fill="#c0ffff" d="M-322.365 362.5h27v31h-27z"/><path stroke="#000" stroke-linecap="round" stroke-linejoin="round" d="M-322.365 362.5h27v31h-27z"/><text transform="translate(-317.365 371.86)" fill="#000"><tspan font-family="Helvetica Neue" font-size="10" font-weight="400" x="1.46" y="10">tc2</tspan></text><path fill="#c0ffff" d="M-463 362h15.2v31H-463z"/><path stroke="#000" stroke-linecap="round" stroke-linejoin="round" d="M-463 362h15.2v31H-463z"/><text transform="translate(-458 371.36)" fill="#000"><tspan font-family="Helvetica Neue" font-size="10" font-weight="400" x="0" y="10">1</tspan></text><path fill="#c0ffff" d="M-494 362h23v31h-23z"/><path stroke="#000" stroke-linecap="round" stroke-linejoin="round" d="M-494 362h23v31h-23z"/><text transform="translate(-489 371.36)" fill="#000"><tspan font-family="Helvetica Neue" font-size="10" font-weight="400" x=".76" y="10">ref</tspan></text><text transform="translate(-250.5 372.86)" fill="#000"><tspan font-family="Helvetica Neue" font-size="10" font-weight="400" x="0" y="10">The Name of the referenced test case</tspan></text><text transform="translate(-304.5 410.36)" fill="#000"><tspan font-family="Helvetica Neue" font-size="10" font-weight="400" x=".26" y="10">The name of the referenced field</tspan></text><path d="M-355.5 393.5h1v24h30.1v-1h5m24.035-38.405l29.965.21" marker-end="url(#a)" stroke="#000" stroke-linecap="round" stroke-linejoin="round"/><text transform="translate(-357 435.36)" fill="#000"><tspan font-family="Helvetica Neue" font-size="10" font-weight="400" x=".09" y="10">The name of the referenced table</tspan></text><path d="M-412.327 393.5v10l-.338 38.404 35.765-.404h5" marker-end="url(#a)" stroke="#000" stroke-linecap="round" stroke-linejoin="round"/><text transform="translate(-440 330.36)" fill="#000"><tspan font-family="Helvetica Neue" font-size="10" font-weight="400" x=".2" y="10">The key word for a reference</tspan></text><text transform="translate(-569 410.36)" fill="#000"><tspan font-family="Helvetica Neue" font-size="10" font-weight="400" x=".215" y="10">The instanceId</tspan></text><path d="M-455.4 393v23.548h-4.6l-23.1-.048h-5" marker-end="url(#a)" stroke="#000" stroke-linecap="round" stroke-linejoin="round"/><text transform="translate(-446.8 371.36)" fill="#000"><tspan font-family="Helvetica Neue" font-size="10" font-weight="400" x="1.21" y="10">:</tspan></text><text transform="translate(-329.4 371.36)" fill="#000"><tspan font-family="Helvetica Neue" font-size="10" font-weight="400" x="1.21" y="10">:</tspan></text><text transform="translate(-470.2 371.36)" fill="#000"><tspan font-family="Helvetica Neue" font-size="10" font-weight="400" x="1.21" y="10">:</tspan></text><text transform="translate(-382.452 371.36)" fill="#000"><tspan font-family="Helvetica Neue" font-size="10" font-weight="400" x="1.21" y="10">:</tspan></text></g></svg>