<svg xmlns="http://www.w3.org/2000/svg" viewBox="-574 325 484 128" width="484" height="128"><defs><marker orient="auto" overflow="visible" markerUnits="strokeWidth" id="a" stroke-linejoin="miter" stroke-miterlimit="10" viewBox="-1 -4 10 8" markerWidth="10" markerHeight="8" color="#000"><path d="M8 0L0-3v6z" fill="currentColor" stroke="currentColor"/></marker></defs><g fill="none"><path d="M-483 362v-10l.047-14.758v-.742h28.053" marker-end="url(#a)" stroke="#000" stroke-linecap="round" stroke-linejoin="round"/><path fill="#c0ffff" d="M-441 362.5h55v31h-55z"/><path stroke="#000" stroke-linecap="round" stroke-linejoin="round" d="M-441 362.5h55v31h-55z"/><text transform="translate(-436 371.86)" fill="#000"><tspan font-family="Helvetica Neue" font-size="10" font-weight="400" x="6.76" y="10">Person</tspan></text><path fill="#c0ffff" d="M-377 362.5h44v31h-44z"/><path stroke="#000" stroke-linecap="round" stroke-linejoin="round" d="M-377 362.5h44v31h-44z"/><text transform="translate(-372 371.86)" fill="#000"><tspan font-family="Helvetica Neue" font-size="10" font-weight="400" x="4.585" y="10">name</tspan></text><path fill="#c0ffff" d="M-324 362.5h49v31h-49z"/><path stroke="#000" stroke-linecap="round" stroke-linejoin="round" d="M-324 362.5h49v31h-49z"/><text transform="translate(-319 371.86)" fill="#000"><tspan font-family="Helvetica Neue" font-size="10" font-weight="400" x="5.145" y="10">[tc2-4]</tspan></text><path fill="#c0ffff" d="M-463 362h13v31h-13z"/><path stroke="#000" stroke-linecap="round" stroke-linejoin="round" d="M-463 362h13v31h-13z"/><text transform="translate(-458 371.36)" fill="#000"><tspan font-family="Helvetica Neue" font-size="10" font-weight="400" x="0" y="10">1</tspan></text><path fill="#c0ffff" d="M-494 362h22v31h-22z"/><path stroke="#000" stroke-linecap="round" stroke-linejoin="round" d="M-494 362h22v31h-22z"/><text transform="translate(-489 371.36)" fill="#000"><tspan font-family="Helvetica Neue" font-size="10" font-weight="400" x=".26" y="10">ref</tspan></text><text transform="translate(-447.4 371.36)" fill="#000"><tspan font-family="Helvetica Neue" font-size="10" font-weight="400" x=".11" y="10">:</tspan></text><text transform="translate(-223.5 363.72)" fill="#000"><tspan font-family="Helvetica Neue" font-size="10" font-weight="400" x="1.67" y="10">The Name of the referenced </tspan> <tspan font-family="Helvetica Neue" font-size="10" font-weight="400" x="18.995" y="22.28">test case as a range</tspan></text><text transform="translate(-304.5 410.36)" fill="#000"><tspan font-family="Helvetica Neue" font-size="10" font-weight="400" x=".26" y="10">The name of the referenced field</tspan></text><path d="M-355 393.5v10l.008 12.848 30.592.152h5m44.4-38.85l36.601-.523" marker-end="url(#a)" stroke="#000" stroke-linecap="round" stroke-linejoin="round"/><text transform="translate(-357 435.36)" fill="#000"><tspan font-family="Helvetica Neue" font-size="10" font-weight="400" x=".09" y="10">The name of the referenced table</tspan></text><path d="M-413.5 393.5v10l-.376 38.313 36.976-.313h5" marker-end="url(#a)" stroke="#000" stroke-linecap="round" stroke-linejoin="round"/><text transform="translate(-440 330.36)" fill="#000"><tspan font-family="Helvetica Neue" font-size="10" font-weight="400" x=".2" y="10">The key word for a reference</tspan></text><text transform="translate(-569 410.36)" fill="#000"><tspan font-family="Helvetica Neue" font-size="10" font-weight="400" x=".215" y="10">The instanceId</tspan></text><path d="M-456.5 393v23.606h-1.436l-25.164-.106h-5" marker-end="url(#a)" stroke="#000" stroke-linecap="round" stroke-linejoin="round"/><text transform="translate(-469.6 371.86)" fill="#000"><tspan font-family="Helvetica Neue" font-size="10" font-weight="400" x=".11" y="10">:</tspan></text><text transform="translate(-383.2 371.86)" fill="#000"><tspan font-family="Helvetica Neue" font-size="10" font-weight="400" x=".11" y="10">:</tspan></text><text transform="translate(-330 371.86)" fill="#000"><tspan font-family="Helvetica Neue" font-size="10" font-weight="400" x=".11" y="10">:</tspan></text></g></svg>