<svg viewBox="0 0 1612 491" xmlns="http://www.w3.org/2000/svg" fill-rule="evenodd" clip-rule="evenodd" stroke-linejoin="round" stroke-miterlimit="1.414"><path d="M244.534-.002c134.649 0 243.968 109.81 243.968 245.066 0 135.255-109.319 245.065-243.968 245.065-134.65 0-243.968-109.81-243.968-245.065C.566 109.808 109.884-.002 244.534-.002zm0 46.103c109.318 0 198.071 89.152 198.071 198.963 0 109.81-88.753 198.962-198.071 198.962-109.319 0-198.072-89.152-198.072-198.962 0-109.811 88.753-198.963 198.072-198.963z" fill="#fff"/><g stroke="#fdfbfb"><path d="M89.246 228.088c1.235-4.843 4.518-8.841 10.877-16.582 3.014-3.669 8.897-10.827 14.663-14.598 13.177-8.614 26.19.156 59.241 3.717 17.143 1.852 30.542 1.304 40.43.906 23.924-.966 29.976-3.987 54.006-3.922 21.918.058 30.169 2.605 36.809 6.033 5.403 2.789 16.885 8.721 20.516 20.22 2.743 8.682-2.176 10.468 0 25.645 1.326 9.241 2.325 16.207 7.773 21.661 2.834 2.839 5.668 4.058 6.395 7.563.937 4.514-2.469 8.781-4.21 10.908-5.711 6.978-13.463 9.604-18.059 10.991-16.053 4.844-30.163 5.557-38.663 5.676-16.727.222-26.15.347-37.507-4.249-10.883-4.404-10.604-7.905-21.629-14.227-15.465-8.867-30.164-10.094-57.326-12.068-29.041-2.113-29.188 1.534-39.373-2.47-6.981-2.75-13.615-7.102-19.167-12.256-10.685-9.918-17.36-22.803-14.776-32.948z" fill="#fff" fill-rule="nonzero"/><path d="M131.53 275.235c1.349-3.568 14.441-1.251 34.566-1.697 8.539-.187 11.779 1.298 16.066 3.82 5.727 3.366 9.724 10.866 9.153 17.839-.9 11.025-12.99 17.993-23.422 24.005-2.264 1.304-4.746 2.716-8.347 3.915-8.432 2.808-17.801 2.715-17.801 2.715s-6.861-4.241-10.277-10.25c-2.872-5.055-2.687-10.266-2.615-11.769.2-4.181 1.604-7.969 3.242-12.376 1.637-4.406 2.482-5.374 2.414-7.844-.141-4.923-3.691-6.478-2.979-8.358z" fill="#fff" fill-rule="nonzero"/><path d="M164.821 318.63c1.351 2.032 1.961 4.668 2.058 5.094.418 1.866 1.011 4.504-.059 7.293-1.588 4.141-5.742 5.746-6.277 5.944-4.882 1.8-9.57-.661-12.89-2.397-2.991-1.568-5.43-4.127-10.307-9.244-3.056-3.209-3.524-4.11-3.447-5.118.323-4.215 9.863-6.366 10.661-6.538 6.382-1.379 16.332-.945 20.261 4.966zm160.938-22.911a43.15 43.15 0 013.212 13.671 41.358 41.358 0 01-.259 8.308c-1.033 7.563-3.99 12.851-4.773 14.2-2.148 3.705-4.865 8.371-10.281 11.268-1.526.815-2.327.989-14.962 2.56-10.342 1.285-12.811 1.544-16.017.079-1.091-.495-5.788-2.633-6.304-6.604-.338-2.595 1.261-4.785 1.761-5.474 2.47-3.395 7.244-5.041 7.244-5.041 1.557-.68 3.528-1.861 4.235-3.899.846-2.434-.617-4.645-2.025-8.452a43.284 43.284 0 01-2.4-10.123" fill="#fff" fill-rule="nonzero"/><path d="M287.618 349.266c-2.385 0-4.078-.358-5.961-1.215-5.817-2.647-7.409-6.103-7.731-8.536-.309-2.37.437-4.808 2.216-7.254 1.235-1.698 3.035-3.21 5.342-4.495a22.97 22.97 0 012.143-1.051c.368-.154.64-.268.862-.345 1.081-.485 2.405-1.285 2.794-2.404.33-.952-.102-2.076-1.033-4.321-.299-.724-.639-1.544-.975-2.453a46.23 46.23 0 01-2.537-10.696l4.905-.575c.37 3.263 1.13 6.47 2.262 9.553.309.823.618 1.565.91 2.284 1.125 2.722 2.096 5.071 1.134 7.837-.792 2.279-2.669 4.079-5.58 5.351l-.474.207h-.058c-1.034.42-4.077 1.792-5.711 4.025-.375.516-1.519 2.082-1.309 3.705.219 1.684 1.953 3.344 4.879 4.676 2.482 1.13 4.322 1.005 14.688-.282 11.933-1.483 12.982-1.689 14.103-2.288 4.798-2.566 7.195-6.692 9.312-10.33 1.04-1.789 3.55-6.665 4.46-13.29.339-2.588.42-5.205.241-7.81a40.643 40.643 0 00-3.028-12.889l4.562-1.894a45.542 45.542 0 013.396 14.453 44.198 44.198 0 01-.276 8.809c-.987 7.228-3.609 12.565-5.083 15.103-2.203 3.788-5.219 8.975-11.252 12.203-1.973 1.055-3.008 1.234-15.824 2.833-5.365.664-8.781 1.089-11.377 1.089z" fill-rule="nonzero"/><path d="M118.481 227.972c10.789 1.081 14.903 1.4 15.366 1.317a.11.11 0 01.067 0c.485.217-.441 4.837-2.498 7.923-2.8 4.199-5.978 2.986-7.335 6.019-1.52 3.396 2.161 5.597 3.079 13.106a25.348 25.348 0 01-1.031 10.903c-.617 1.852-2.56 7.376-7.852 11.025-3.119 2.152-6.65 2.707-13.582 3.728-4.697.691-6.16.634-13.992 1.279-11.593.953-14.651 1.592-20.754.917-6.928-.772-9.179-2.273-10.536-3.582-2.235-2.161-4.445-6.092-3.432-9.57.872-3.011 3.297-2.664 6.953-7.308a27.264 27.264 0 004.322-8.104c.977-2.959.549-3.479 1.543-8.603 1.033-5.293 1.544-7.94 2.726-9.644 2.715-3.934 5.557-2.644 9.764-7.1 3.11-3.289 4.362-6.975 4.845-8.418 2.223-6.756.173-11.002 2.132-12.155 1.131-.667 3.105-.596 9.039 4.877" fill="#fff" fill-rule="nonzero"/><path d="M74.746 286.938a44.992 44.992 0 01-5.071-.296c-3.364-.365-5.98-.943-8-1.754-2.078-.827-3.219-1.776-3.981-2.512-2.951-2.84-5.362-7.667-4.089-12.029.693-2.381 2.123-3.443 3.512-4.47 1.097-.812 2.34-1.732 3.875-3.678a24.858 24.858 0 003.91-7.347c.463-1.421.556-2.136.71-3.431.128-1.067.309-2.525.761-4.871 1.099-5.623 1.65-8.446 3.118-10.575 1.764-2.556 3.697-3.445 5.402-4.229 1.471-.678 2.862-1.317 4.601-3.159 2.794-2.959 3.918-6.375 4.286-7.499 1.022-3.104 1.033-5.593 1.042-7.592.011-2.284.022-4.646 2.183-5.919 1.423-.839 3.101-.834 4.984.012 1.821.818 4.039 2.47 6.982 5.178a2.47 2.47 0 01.795 1.815 2.48 2.48 0 01-2.469 2.47 2.473 2.473 0 01-1.675-.654c-3.396-3.135-5.093-4.094-5.828-4.385-.026.432-.029 1.006-.032 1.504-.01 2.1-.025 5.27-1.289 9.107-.456 1.389-1.837 5.586-5.387 9.346-2.397 2.539-4.465 3.49-6.128 4.255-1.5.69-2.406 1.107-3.395 2.549-.885 1.279-1.399 3.92-2.336 8.714-.423 2.161-.578 3.468-.704 4.513-.168 1.389-.308 2.501-.926 4.391a29.602 29.602 0 01-4.721 8.857 22.746 22.746 0 01-4.816 4.59c-1.176.871-1.492 1.13-1.712 1.88-.498 1.715.295 4.705 2.779 7.1.665.642 2.224 2.146 9.092 2.905 4.477.496 7.142.252 13.583-.335 1.909-.174 4.072-.372 6.7-.588 2.493-.205 4.356-.339 5.855-.449 3.241-.235 4.86-.353 7.98-.812 6.819-1.003 9.944-1.523 12.545-3.317 3.133-2.161 5.458-5.45 6.912-9.778a23.027 23.027 0 00.926-9.818c-.389-3.18-1.306-5.248-2.115-7.069-.994-2.237-2.02-4.552-.771-7.346 1.028-2.29 2.769-3.087 4.167-3.716 1.235-.559 2.289-1.041 3.366-2.655.871-1.306 1.487-2.943 1.843-4.209-2.171-.165-6.008-.514-12.965-1.21a2.48 2.48 0 01-2.238-2.459 2.48 2.48 0 012.73-2.456c11.845 1.186 14.347 1.318 14.86 1.318.456-.051.918.021 1.338.209.709.325 1.24.947 1.452 1.698.273.949.105 2.469-.501 4.522-.34 1.148-1.104 3.365-2.407 5.319-1.852 2.789-3.923 3.727-5.433 4.411-1.185.539-1.462.706-1.698 1.235-.318.707-.123 1.298.772 3.322.855 1.926 2.025 4.564 2.502 8.473a27.743 27.743 0 01-1.141 11.99c-1.801 5.362-4.758 9.491-8.797 12.271-3.659 2.523-7.789 3.13-14.631 4.138-3.299.485-5.094.617-8.335.852-1.488.108-3.339.242-5.808.444-2.606.215-4.757.411-6.656.585-4.121.397-6.837.644-9.508.644z" fill-rule="nonzero"/><path d="M123.189 273.28a77.763 77.763 0 0020.797-4.29c11.304-4.013 18.83-9.66 24.415-13.92a111.138 111.138 0 0017.723-16.949" fill="#fff" fill-rule="nonzero"/><path d="M123.186 275.749l-.081.002a2.483 2.483 0 01-2.471-2.471 2.482 2.482 0 012.39-2.47 75.272 75.272 0 0020.136-4.155c11.17-3.965 18.736-9.738 23.742-13.556a109.06 109.06 0 0017.332-16.562 2.468 2.468 0 011.909-.904 2.482 2.482 0 012.47 2.47c0 .59-.212 1.161-.596 1.609a113.918 113.918 0 01-18.119 17.319c-5.248 4.014-13.186 10.061-25.086 14.285a80.277 80.277 0 01-21.455 4.429 3.356 3.356 0 01-.171.004z" fill-rule="nonzero"/><path d="M166.704 256.951a128.272 128.272 0 0113.12 16.807c5.157 7.872 11.531 17.792 14.183 31.548 2.425 12.573 1.317 26.151-3.15 27.588-1.207.389-1.872-.363-4.995-.034a18.443 18.443 0 00-7.784 2.655c-2.144 1.363-5.275 3.352-5.993 6.873-.5 2.442.375 4.584 1.46 7.24.954 2.339 1.431 3.509 2.644 4.476 1.343 1.081 2.636 1.166 8.502 1.57 5.945.411 5.916.411 5.939.411 1.321.021 6.765.045 14.629-2.062 4.893-1.312 11.576-3.104 18.831-8.138 3.874-2.685 8.591-5.959 12.147-12.105 4.686-8.1 4.618-16.46 4.559-19.365-.154-7.74-2.469-9.099-1.194-14.612.558-2.416 1.557-4.549 7.481-12.281 2.76-3.601 6.54-8.358 11.291-13.819" fill="#fff" fill-rule="nonzero"/><path d="M191.122 358.567h-.531c-.074 0-.074 0-.671-.042l-5.402-.375h-.027c-6.232-.431-7.907-.546-9.85-2.105-1.712-1.374-2.379-3.004-3.386-5.474-1.153-2.824-2.242-5.491-1.593-8.668.926-4.548 4.784-6.998 7.089-8.463a20.83 20.83 0 018.856-3.031 14.74 14.74 0 013.986.075c.191.027.427.061.521.062.391-.154 1.853-1.806 2.448-7.518.522-5.038.166-11.325-.977-17.249-2.613-13.558-9.092-23.444-13.823-30.661a126.248 126.248 0 00-12.879-16.48 2.467 2.467 0 01-.648-1.667 2.482 2.482 0 012.469-2.47c.684 0 1.338.284 1.805.783a131.162 131.162 0 0113.383 17.133c4.956 7.563 11.745 17.92 14.545 32.435 1.234 6.379 1.608 13.192 1.038 18.693-.697 6.747-2.668 10.687-5.865 11.713-1.096.354-1.957.232-2.718.124a9.907 9.907 0 00-2.778-.053 15.997 15.997 0 00-6.724 2.288c-1.955 1.235-4.389 2.789-4.899 5.282-.332 1.628.258 3.192 1.328 5.813.904 2.214 1.222 2.941 1.903 3.488.68.546 1.617.651 7.1 1.031h.028l5.402.373.463.033c1.92.026 6.979-.127 13.891-1.981 4.712-1.262 11.164-2.991 18.067-7.779 3.814-2.647 8.137-5.646 11.422-11.313 2.943-5.094 4.366-11.172 4.227-18.079-.063-3.178-.517-5.182-.926-6.946-.54-2.389-1.051-4.646-.213-8.267.675-2.909 1.925-5.39 7.927-13.228a290.778 290.778 0 0111.388-13.937 2.471 2.471 0 011.837-.819 2.48 2.48 0 012.47 2.469 2.47 2.47 0 01-.581 1.591 285.87 285.87 0 00-11.193 13.7c-5.882 7.679-6.605 9.475-7.035 11.337-.584 2.52-.283 3.859.217 6.064.431 1.899.965 4.262 1.039 7.942.154 7.822-1.488 14.769-4.89 20.65-3.832 6.624-8.847 10.104-12.877 12.899-7.608 5.278-14.541 7.135-19.602 8.489-6.836 1.821-12.013 2.138-14.761 2.138z" fill-rule="nonzero"/><path d="M305.873 239.697c4.365 15.757 10.587 27.165 15.498 34.672 3.752 5.735 8.193 10.916 17.077 21.279 4.029 4.7 13.084 15.219 24.877 26.815a7235.185 7235.185 0 0011.844 11.555c-.994.855-2.431 2.066-4.2 3.482-5.26 4.209-5.991 4.829-7.129 6.822-.537.941-1.935 5.416 1.206 7.663 7.473 5.348 9.944 4.68 12.738 4.913 4.491.374 7.62 0 9.219 0 1.101 0 9.693-.117 14.884-4.826 2.076-1.883 4.867-5.642 4.448-24.482-.447-20.191-3.815-23.218-2.437-38.278.772-8.384 2.414-17.298 2.414-17.298 1.852-10.051 3.07-12.258 3.141-17.205.09-6.294-2.03-10.042-6.209-20.289-9.896-24.264-7.914-22.458-11.462-28.637-5.742-10.001-7.116-8.081-15.64-21.97-4.469-7.277-5.711-10.452-10.053-14.565-6.112-5.801-12.615-8.014-16.67-9.436-29.247-10.245-26.784-12.726-42.367-16.549-19.551-4.797-34.588-3.627-56.066-1.96-23.566 1.829-46.621 3.618-72.662 15.819-5.754 2.698-17.207 9.698-40.1 23.697-7.037 4.303-15.1 9.317-24.841 17.113-6.56 5.248-12.535 13.007-16.068 16.452" fill="#fff" fill-rule="nonzero"/><path d="M381.832 359.534c-1.248 0-2.671-.043-4.253-.176-.32-.026-.652-.04-1.004-.055-2.624-.108-5.885-.242-12.965-5.31-1.985-1.421-3.056-3.684-3.013-6.368.03-1.852.574-3.604 1.102-4.529 1.409-2.469 2.498-3.338 7.732-7.526.691-.552 1.38-1.114 2.066-1.684-2.82-2.746-7.912-7.706-9.901-9.662-12.106-11.905-21.489-22.844-25.02-26.969-8.942-10.43-13.428-15.665-17.269-21.535a119.362 119.362 0 01-5.93-10.133c-4.1-7.867-7.41-16.314-9.881-25.231a2.453 2.453 0 01-.09-.659 2.482 2.482 0 012.47-2.47c1.107 0 2.085.744 2.38 1.81a127.238 127.238 0 005.233 15.154c2.787 6.66 6.113 12.956 9.952 18.826 3.664 5.602 8.083 10.755 16.884 21.023 3.496 4.076 12.779 14.904 24.734 26.662a5260.844 5260.844 0 0011.836 11.545l1.935 1.885-2.048 1.759a155.583 155.583 0 01-4.266 3.536c-5.22 4.177-5.648 4.578-6.527 6.119-.01.018-1.305 3.142.497 4.43 5.883 4.21 8.126 4.303 10.296 4.392.388.017.787.033 1.21.068a51.32 51.32 0 007.315.054 37.07 37.07 0 011.698-.063c.884 0 8.765-.136 13.23-4.186 1.11-1.006 4.058-3.681 3.638-22.598-.199-9.016-.981-14.489-1.673-19.318-.822-5.756-1.532-10.725-.753-19.237.772-8.4 2.377-17.153 2.445-17.522.746-4.042 1.389-6.808 1.897-9.029.75-3.25 1.164-5.041 1.202-7.761.068-4.723-1.234-7.83-4.084-14.638-.579-1.389-1.235-2.95-1.943-4.684-4.931-12.094-6.93-17.751-8.125-21.132-1.195-3.382-1.516-4.29-3.192-7.208-2.633-4.588-4.306-6.556-6.243-8.835-2.257-2.657-4.814-5.667-9.36-13.072-1.096-1.784-1.999-3.325-2.797-4.683-2.469-4.195-3.818-6.507-6.85-9.385-5.626-5.337-11.618-7.434-15.589-8.822l-.208-.073c-14.846-5.2-21.669-8.455-26.653-10.832-4.813-2.295-7.992-3.811-15.486-5.649-19.162-4.703-33.531-3.587-55.282-1.898-23.743 1.842-46.17 3.584-71.806 15.589-5.638 2.644-17.074 9.637-39.857 23.564-7.662 4.686-15.305 9.505-24.589 16.937-4.222 3.383-8.264 7.923-11.506 11.568-1.685 1.893-3.139 3.526-4.374 4.73a2.473 2.473 0 01-1.711.688 2.48 2.48 0 01-2.469-2.469c0-.659.263-1.292.732-1.756 1.11-1.08 2.511-2.656 4.133-4.476 3.373-3.784 7.564-8.489 12.115-12.135 9.51-7.612 17.298-12.523 25.097-17.287 22.943-14.03 34.456-21.07 40.339-23.826 11.885-5.569 24.273-9.491 37.862-11.992 12.092-2.224 24.079-3.155 35.655-4.053 21.428-1.664 36.909-2.866 56.842 2.025 7.986 1.959 11.53 3.649 16.435 5.989 4.88 2.327 11.565 5.516 26.159 10.628l.207.073c4.098 1.434 10.958 3.834 17.351 9.901 3.538 3.357 5.197 6.187 7.718 10.468.786 1.338 1.676 2.856 2.746 4.598 4.348 7.082 6.774 9.937 8.915 12.458 2.006 2.361 3.903 4.593 6.764 9.569 1.898 3.31 2.352 4.592 3.563 8.026 1.18 3.339 3.155 8.928 8.042 20.913.699 1.713 1.351 3.269 1.925 4.641 2.932 7.006 4.55 10.865 4.468 16.616-.046 3.241-.557 5.456-1.329 8.798-.501 2.173-1.127 4.879-1.852 8.815-.017.088-1.636 8.906-2.383 17.075-.727 7.935-.087 12.415.724 18.087.71 4.967 1.515 10.596 1.722 19.911.192 8.633-.256 14.936-1.366 19.267-1.049 4.097-2.557 5.887-3.892 7.1-5.711 5.18-14.779 5.464-16.539 5.467-.361 0-.869.027-1.457.057-.988.042-2.235.105-3.731.105z" fill-rule="nonzero"/><path d="M239.207 301.404a122.433 122.433 0 0019.468 4.013c7.552.926 13.284.91 18.89.896 6.174-.015 12.279-.03 20.342-1.143 5.783-.8 12.058-1.698 19.781-4.537a77.601 77.601 0 0017.02-8.768" fill="#fff" fill-rule="nonzero"/><path d="M275.494 308.774c-5.026 0-10.354-.09-17.12-.917a125.394 125.394 0 01-19.86-4.09l1.389-4.74a120.49 120.49 0 0019.071 3.92c7.399.906 13.087.891 18.585.878 6.23-.015 12.113-.031 20.01-1.12 5.455-.753 11.636-1.607 19.269-4.408a75.32 75.32 0 0016.478-8.49l2.778 4.08a80.212 80.212 0 01-17.555 9.06c-8.131 2.984-14.875 3.916-20.294 4.665-8.227 1.136-14.554 1.151-20.672 1.166l-2.079-.004z" fill-rule="nonzero"/><path d="M125.944 273.047c1.252.321 4.515 1.346 6.589 4.408 2.007 2.96 1.777 6.165 1.581 8.463-.516 6.019-3.303 6.748-4.713 13.575a27.604 27.604 0 00-.282 9.731c.702 4.501 2.406 7.647 3.53 9.678 2.53 4.574 5.319 7.216 9.891 11.474 5.366 5 8.12 7.508 11.543 7.905.52.06 6.4.643 10.42-3.598 2.303-2.43 2.879-5.262 3.039-6.349.266-1.79.132-3.784-4.25-13.014-3.705-7.818-4.81-8.908-5.611-9.587-3.516-2.982-7.717-3.519-9.991-3.618" fill="#fff" fill-rule="nonzero"/><path d="M155.258 340.806c-.487.003-.974-.021-1.459-.073-4.3-.497-7.552-3.528-12.943-8.549-4.41-4.107-7.596-7.075-10.368-12.086-1.057-1.91-3.025-5.468-3.809-10.495a30.111 30.111 0 01.308-10.612c.741-3.59 1.828-5.657 2.786-7.48.959-1.822 1.656-3.147 1.885-5.806.165-1.93.39-4.572-1.164-6.867-1.48-2.186-3.869-3.07-5.161-3.404l1.234-4.784c1.968.506 5.627 1.884 8.019 5.416 2.536 3.744 2.198 7.697 1.996 10.059-.309 3.653-1.389 5.711-2.433 7.685-.886 1.682-1.721 3.27-2.315 6.174-.611 2.912-.7 5.91-.261 8.853.65 4.167 2.278 7.1 3.251 8.863 2.29 4.138 4.67 6.445 9.415 10.863 5.171 4.816 7.563 6.958 10.145 7.254.207.025 5.128.551 8.344-2.843 1.698-1.792 2.226-3.908 2.388-5.008.147-.994.349-2.354-4.038-11.597-3.607-7.598-4.567-8.413-4.977-8.761-2.739-2.315-6.134-2.932-8.5-3.034l.213-4.939c4.499.194 8.47 1.647 11.482 4.201 1.193 1.013 2.488 2.494 6.243 10.411 4.681 9.86 4.806 12.118 4.464 14.435-.249 1.677-1.058 4.908-3.689 7.685-3.698 3.897-8.605 4.439-11.056 4.439z" fill-rule="nonzero"/><path d="M165.47 320.952c4.61.583 8.415-.028 10.958-2.315 2.204-1.979 4.885-1.559 7.627-5.403 3.192-4.466 2.145-6.303 4.638-10.244 1.184-1.87 2.247-4.391 2.624-7.802" fill="#fff" fill-rule="nonzero"/><path d="M168.529 323.63a27.128 27.128 0 01-3.37-.222l.618-4.901c4.133.522 7.161-.049 8.998-1.698 1.132-1.014 2.315-1.543 3.354-2.006 1.457-.649 2.609-1.163 3.913-2.987 1.489-2.084 1.881-3.419 2.335-4.965.423-1.439.902-3.07 2.226-5.165 1.213-1.917 1.973-4.19 2.257-6.753l4.908.544c-.366 3.315-1.372 6.292-2.99 8.85-.955 1.51-1.283 2.624-1.662 3.914-.506 1.727-1.081 3.683-3.055 6.447-2.087 2.918-4.214 3.859-5.922 4.631-.844.377-1.513.674-2.064 1.168-2.33 2.086-5.533 3.143-9.546 3.143z" fill-rule="nonzero"/><circle cx="93.623" cy="251.154" r="4.191"/><circle cx="77.463" cy="241.658" r="4.191"/><path d="M61.466 270.542c-2.653.713.016 6.505 1.928 6.826 2.067.348 6.298-4.911 4.118-6.226-1.895-1.142-3.948-1.162-6.046-.6z" fill-rule="nonzero"/></g><text x="514.672" y="358.211" font-family="'Arial-BoldMT','Arial',sans-serif" font-weight="700" font-size="300" fill="#fff">Nanook</text></svg>