<svg xmlns="http://www.w3.org/2000/svg" viewBox="-592 -43 1781 305" width="1781" height="305"><g fill="none"><path d="M-573.884-33.364l243.929-.34.235 168.495-243.929.34z" fill="#000"/><path d="M-583.08-42.625L-314.627-43a8.933 8.933 0 018.946 8.92l.236 168.812a8.933 8.933 0 01-8.921 8.945l-268.452.375a8.933 8.933 0 01-8.945-8.92L-592-33.68a8.933 8.933 0 018.92-8.946z" fill="#000"/><path d="M-580.517-41.074l263.839-.369a8.933 8.933 0 018.945 8.921l.231 165.37a8.933 8.933 0 01-8.92 8.947l-263.839.368a8.933 8.933 0 01-8.945-8.92l-.231-165.371a8.933 8.933 0 018.92-8.946z" fill="#535461"/><circle cx="-577.152" cy="51.303" r="6.521" fill="#535461"/><circle cx="-577.152" cy="51.303" r="6.521" fill="#000"/><circle cx="-318.963" cy="23.118" r="2.173" fill="#535461"/><path d="M-319.367 33.988l1.27-.002a.45.45 0 01.452.45l.038 27.355a.45.45 0 01-.45.452l-1.27.001a.45.45 0 01-.452-.45l-.038-27.355a.45.45 0 01.45-.451z" fill="#535461"/><path d="M-319.367 33.988l1.27-.002a.45.45 0 01.452.45l.038 27.355a.45.45 0 01-.45.452l-1.27.001a.45.45 0 01-.452-.45l-.038-27.355a.45.45 0 01.45-.451z" fill="#000"/><circle cx="-318.963" cy="23.118" r="2.173" fill="#000"/><path d="M-363.388 129.684h-202.01V-27.35h235.769v135.642l-.136 21.165z" fill="#fff"/><path fill="#e0e0e0" d="M-565.397 27.01h235.768v2.163h-235.768zm0-11.667h235.768v2.163h-235.768zm0-11.667h235.768v2.163h-235.768zm0-11.668h235.768v2.163h-235.768zm0-11.667h235.768v2.163h-235.768zm0 58.339h235.768v2.163h-235.768zm0 11.674h235.768v2.163h-235.768zm0 11.673h235.768v2.163h-235.768zm0 11.674h235.768v2.163h-235.768zm0 11.67h235.768v2.163h-235.768zm0 11.673h235.768v2.163h-235.768zm-.003 11.674h235.73v2.163H-565.4zm.003 11.673h235.547v2.163h-235.547z"/><path fill="#e0e0e0" d="M-537.084-17.505h1.633v147.189h-1.633zm36.074 0h1.633v147.189h-1.633zm36.073 0h1.633v147.189h-1.633zm36.074 0h1.633v147.189h-1.633zm36.074 0h1.633v147.189h-1.633zm37.707 147.189h-1.634V-17.505l1.634-.07z"/><circle cx="-560.125" cy="-23.723" r="2.122" fill="#ff5252"/><circle cx="-554.048" cy="-23.723" r="2.122" fill="#ff0"/><circle cx="-547.972" cy="-23.723" r="2.122" fill="#69f0ae"/><path fill="#42e5fc" d="M-499.497 64.096h34.686v9.46h-34.686zm36.263 46.668h34.686v9.46h-34.686zm35.948-12.613h34.686v9.46h-34.686zm0-69.057h34.686v9.46h-34.686zm36.262 46.669h34.686v9.46h-34.686zm-144.735-81.67h34.686v9.46h-34.686zm72.525 23.649h34.686v9.46h-34.686zm-72.525 23.019h34.686v9.46h-34.686z"/><path d="M1032.07-32.166l-1.37 79.47s49.595 0 91.79 13.7l.822-80.303s-67.678-16.153-91.242-12.867z" fill="#000"/><path d="M1031.35-33.244l-1.37 79.47s49.595 0 91.79 13.7l.823-80.304s-67.678-16.153-91.242-12.866z" fill="#f5f5fb"/><path d="M1010.947-32.227l1.37 79.47s-49.594 0-91.789 13.7l-.823-80.282s67.678-16.174 91.242-12.888z" fill="#000"/><path d="M1011.667-33.305l1.37 79.47s-49.595 0-91.79 13.7l-.823-80.283s67.679-16.174 91.243-12.887z" fill="#f5f5fb"/><path d="M1135.283-7.969v78.64s16.182-1.917 50.142 40.004l3.017-78.639s-35.348-38.084-53.159-40.005z" fill="#000"/><path d="M1134.564-8.688v78.64s16.182-1.917 50.142 40.004l3.017-78.64s-35.348-38.084-53.159-40.004z" fill="#f5f5fb"/><path d="M908.615-5.635v78.643s-16.182-1.917-50.142 40.004l-3.013-78.639S890.804-3.71 908.615-5.635z" fill="#000"/><path d="M909.334-6.714V71.93s-16.182-1.917-50.141 40.005l-3.014-78.64S891.524-4.79 909.334-6.713z" fill="#f5f5fb"/><path d="M1091.287 125.893c0 2.679-17.012 18.16-55.736 18.16-38.725 0-59.692-14.942-59.692-17.62 0-2.68 21.686 3.955 60.41 3.955 38.725 0 55.018-7.178 55.018-4.495z" fill="#f7f7fd"/><ellipse cx="1034.019" cy="43.122" rx="54.701" ry="24.413" fill="#000"/><path d="M1089.67 51.85c-2.42 12.729-26.334 22.722-55.482 22.722-29.404 0-53.482-10.17-55.546-23.053h-.205v20.744c9.615 10.047 30.903 17.034 55.614 17.034s46-6.987 55.618-17.034z" fill="#000"/><path d="M1089.67 77.093c-2.42 12.726-26.334 22.722-55.482 22.722-29.404 0-53.482-10.169-55.546-23.057h-.205v20.749c9.615 10.047 30.903 17.03 55.614 17.03s46-6.983 55.618-17.03z" fill="#000"/><path d="M1089.67 104.857c-2.42 12.73-26.334 22.722-55.482 22.722-29.404 0-53.482-10.165-55.546-23.053h-.205V126.9c-.002.964.4 1.884 1.107 2.538 10.069 9.246 30.706 12.867 54.507 12.867 23.802 0 44.428-3.621 54.51-12.867a3.448 3.448 0 001.108-2.538z" fill="#000"/><ellipse cx="1034.019" cy="41.684" rx="54.701" ry="24.413" fill="#42e5fc"/><path d="M1089.67 50.411c-2.42 12.73-26.334 22.723-55.482 22.723-29.404 0-53.482-10.17-55.546-23.054h-.205v20.745c9.615 10.047 30.903 17.034 55.614 17.034s46-6.987 55.618-17.034z" fill="#42e5fc"/><path d="M1089.67 75.654c-2.42 12.726-26.334 22.723-55.482 22.723-29.404 0-53.482-10.17-55.546-23.057h-.205v20.748c9.615 10.047 30.903 17.03 55.614 17.03s46-6.983 55.618-17.03z" fill="#42e5fc"/><path d="M1089.67 103.418c-2.42 12.73-26.334 22.723-55.482 22.723-29.404 0-53.482-10.166-55.546-23.053h-.205v22.373c-.002.964.4 1.885 1.107 2.54 10.069 9.244 30.706 12.865 54.507 12.865 23.802 0 44.428-3.62 54.51-12.866a3.448 3.448 0 001.108-2.539z" fill="#42e5fc"/><path d="M964.851 2.298a7.551 7.551 0 100 15.102 7.551 7.551 0 000-15.102zm0 1.463a6.113 6.113 0 110 12.226 6.113 6.113 0 010-12.226zm4.276 3.974l-.687-.694a.36.36 0 00-.518 0l-4.315 4.275-1.82-1.848a.36.36 0 00-.517 0l-.69.687a.36.36 0 000 .518l2.768 2.79a.36.36 0 00.518 0l5.26-5.221a.36.36 0 000-.518zM881.254 40.53a7.551 7.551 0 103.417 14.71 7.551 7.551 0 00-3.417-14.71zm.33 1.438a6.113 6.113 0 112.779 11.906 6.113 6.113 0 01-2.779-11.906zm5.06 2.913l-.827-.533a.36.36 0 00-.504.115l-3.236 5.135-2.19-1.384a.36.36 0 00-.503.115l-.522.827a.36.36 0 00.115.504l3.323 2.096a.36.36 0 00.507-.115l3.956-6.268a.36.36 0 00-.112-.503zM1074.911 3.39a7.551 7.551 0 100 15.104 7.551 7.551 0 000-15.103zm0 1.464a6.113 6.113 0 110 12.227 6.113 6.113 0 010-12.227zm4.276 3.974l-.687-.694a.36.36 0 00-.518 0l-4.315 4.275-1.823-1.837a.36.36 0 00-.518 0l-.686.694a.36.36 0 000 .518l2.768 2.79a.36.36 0 00.518 0l5.261-5.221a.36.36 0 000-.518zm82.361 31.856a7.551 7.551 0 10-1.169 15.058 7.551 7.551 0 001.169-15.058zm-.115 1.456a6.113 6.113 0 11-6.552 5.61 6.095 6.095 0 016.552-5.61zm3.955 4.294l-.632-.744a.36.36 0 00-.515-.044l-4.628 3.93-1.675-1.973a.36.36 0 00-.518-.043l-.745.632a.36.36 0 00-.04.515l2.543 2.995a.36.36 0 00.514.043l5.653-4.797a.36.36 0 00.043-.514z" fill="#3acc6c"/><path d="M154.66 33.693c1.019-3.992 3.724-7.287 8.965-13.666 2.485-3.024 7.333-8.924 12.085-12.032 10.86-7.1 21.585.129 48.824 3.063 14.13 1.527 25.172 1.075 33.321.747 19.718-.796 24.705-3.286 44.51-3.232 18.064.048 24.865 2.147 30.337 4.972 4.453 2.299 13.916 7.188 16.909 16.665 2.26 7.155-1.794 8.627 0 21.135 1.093 7.616 1.916 13.357 6.406 17.853 2.336 2.34 4.671 3.344 5.27 6.233.773 3.72-2.035 7.237-3.47 8.99-4.707 5.751-11.095 7.915-14.883 9.058-13.23 3.992-24.86 4.58-31.865 4.678-13.785.183-21.552.286-30.912-3.502-8.969-3.63-8.739-6.514-17.825-11.725-12.747-7.308-24.86-8.32-47.247-9.946-23.934-1.742-24.055 1.264-32.45-2.036-16.824-6.627-31.21-24.55-27.974-37.255z" fill="#fff"/><path d="M189.51 72.55c1.112-2.941 11.901-1.032 28.488-1.4 7.037-.153 9.707 1.07 13.241 3.149 4.72 2.774 8.014 8.955 7.544 14.703-.742 9.086-10.706 14.828-19.304 19.783-1.866 1.075-3.912 2.24-6.88 3.228-6.949 2.313-14.67 2.237-14.67 2.237s-5.655-3.496-8.47-8.448c-2.367-4.166-2.215-8.46-2.155-9.7.164-3.446 1.322-6.567 2.671-10.2 1.35-3.63 2.046-4.428 1.99-6.464-.116-4.058-3.042-5.339-2.455-6.888z" fill="#fff"/><path d="M216.947 108.315c1.113 1.674 1.616 3.846 1.696 4.197.345 1.538.833 3.712-.048 6.011-1.31 3.413-4.732 4.736-5.174 4.899-4.023 1.483-7.887-.545-10.623-1.976-2.465-1.292-4.475-3.401-8.495-7.618-2.519-2.645-2.904-3.388-2.84-4.218.265-3.475 8.128-5.247 8.786-5.389 5.26-1.136 13.46-.779 16.698 4.094zm132.64-18.883a35.575 35.575 0 012.647 11.267 34.138 34.138 0 01-.214 6.847c-.85 6.233-3.288 10.592-3.933 11.703-1.77 3.053-4.01 6.899-8.473 9.287-1.259.671-1.919.815-12.332 2.11-8.523 1.058-10.558 1.272-13.2.065-.9-.408-4.77-2.17-5.196-5.443-.278-2.139 1.04-3.944 1.452-4.511 2.035-2.799 5.97-4.155 5.97-4.155 1.283-.56 2.908-1.534 3.49-3.213.697-2.006-.509-3.83-1.669-6.966a35.677 35.677 0 01-1.978-8.344" fill="#fff"/><path d="M318.152 133.563c-1.965 0-3.36-.295-4.913-1.001-4.794-2.182-6.106-5.03-6.371-7.035-.255-1.954.36-3.962 1.826-5.979 1.018-1.399 2.501-2.646 4.403-3.704a18.38 18.38 0 011.766-.866c.304-.127.527-.222.71-.285.891-.4 1.983-1.059 2.303-1.98.272-.786-.084-1.712-.85-3.563a53.017 53.017 0 01-.805-2.021 38.077 38.077 0 01-2.091-8.816l4.043-.473a33.94 33.94 0 001.864 7.873c.255.678.51 1.29.75 1.883.927 2.243 1.727 4.179.935 6.458-.653 1.88-2.2 3.362-4.599 4.41l-.39.171h-.049c-.852.346-3.36 1.477-4.707 3.318-.309.424-1.251 1.716-1.078 3.053.18 1.387 1.609 2.756 4.02 3.854 2.046.931 3.563.828 12.106-.233 9.835-1.222 10.7-1.391 11.623-1.885 3.955-2.115 5.93-5.516 7.675-8.514.857-1.474 2.925-5.493 3.676-10.953.28-2.133.346-4.29.198-6.437a33.48 33.48 0 00-2.495-10.623l3.76-1.56a37.533 37.533 0 012.798 11.911c.167 2.422.09 4.854-.227 7.26-.813 5.957-2.974 10.356-4.19 12.447-1.815 3.122-4.3 7.398-9.273 10.058-1.626.87-2.48 1.017-13.041 2.335-4.422.547-7.237.897-9.377.897z" fill="#000"/><path d="M178.756 33.597c8.891.89 12.282 1.154 12.663 1.085a.102.102 0 01.056 0c.4.18-.364 3.987-2.06 6.53-2.307 3.461-4.926 2.461-6.044 4.961-1.253 2.799 1.78 4.613 2.537 10.801a20.9 20.9 0 01-.85 8.986c-.508 1.527-2.11 6.08-6.47 9.087-2.571 1.773-5.482 2.231-11.195 3.072-3.87.57-5.077.523-11.531 1.055-9.555.784-12.075 1.311-17.105.755-5.71-.636-7.565-1.874-8.683-2.952-1.842-1.781-3.664-5.021-2.83-7.887.72-2.482 2.718-2.196 5.732-6.024a22.465 22.465 0 003.561-6.678c.806-2.439.453-2.867 1.273-7.09.85-4.363 1.272-6.544 2.246-7.949 2.238-3.242 4.58-2.179 8.047-5.851 2.564-2.711 3.595-5.749 3.993-6.938 1.832-5.568.143-9.068 1.757-10.018.933-.55 2.56-.491 7.45 4.02" fill="#fff"/><path d="M142.71 82.195a37.028 37.028 0 01-4.18-.244c-2.771-.3-4.927-.778-6.592-1.446-1.713-.681-2.653-1.464-3.281-2.07-2.432-2.341-4.42-6.319-3.37-9.914.571-1.963 1.75-2.838 2.894-3.684.905-.669 1.929-1.427 3.194-3.031a20.48 20.48 0 003.223-6.055c.381-1.172.458-1.761.585-2.828.105-.88.254-2.081.627-4.015.906-4.634 1.36-6.96 2.57-8.715 1.453-2.107 3.046-2.84 4.452-3.486 1.212-.558 2.358-1.085 3.792-2.604 2.302-2.438 3.228-5.253 3.532-6.18.843-2.557.851-4.61.86-6.257.008-1.882.017-3.829 1.798-4.878 1.173-.69 2.555-.687 4.107.01 1.502.674 3.33 2.035 5.755 4.268a2.035 2.035 0 01-2.76 2.992c-2.799-2.584-4.198-3.374-4.803-3.614a24.2 24.2 0 00-.027 1.24c-.008 1.73-.02 4.343-1.062 7.505-.376 1.145-1.514 4.604-4.44 7.703-1.976 2.092-3.68 2.876-5.05 3.507-1.237.569-1.983.912-2.799 2.1-.729 1.055-1.152 3.231-1.924 7.182-.349 1.781-.477 2.859-.58 3.72-.14 1.145-.255 2.06-.764 3.62a24.407 24.407 0 01-3.891 7.298 18.756 18.756 0 01-3.969 3.784c-.97.717-1.23.93-1.41 1.549-.412 1.413.242 3.877 2.289 5.852.548.529 1.833 1.768 7.494 2.394 3.689.408 5.886.207 11.194-.276a567.69 567.69 0 015.522-.485c2.055-.17 3.59-.28 4.825-.37 2.672-.194 4.006-.292 6.577-.67 5.62-.826 8.196-1.255 10.34-2.733 2.582-1.781 4.498-4.492 5.696-8.059a18.973 18.973 0 00.763-8.091c-.32-2.621-1.076-4.326-1.742-5.827-.82-1.843-1.666-3.751-.636-6.054.847-1.887 2.282-2.544 3.434-3.063 1.018-.46 1.887-.857 2.775-2.188.717-1.076 1.225-2.426 1.518-3.469-1.79-.136-4.952-.423-10.685-.997a2.035 2.035 0 11.406-4.05c9.762.977 11.824 1.086 12.246 1.086a2.12 2.12 0 011.103.172c.585.268 1.022.78 1.197 1.4.225.781.087 2.034-.413 3.726-.28.947-.91 2.773-1.984 4.384-1.526 2.299-3.233 3.072-4.477 3.636-.977.443-1.205.58-1.4 1.017-.262.583-.101 1.07.636 2.738.705 1.587 1.67 3.761 2.062 6.983a22.872 22.872 0 01-.94 9.882c-1.484 4.42-3.921 7.822-7.25 10.113-3.015 2.08-6.42 2.58-12.059 3.41-2.718.4-4.197.51-6.869.703-1.226.089-2.751.2-4.787.366-2.147.177-3.92.339-5.485.482-3.396.327-5.635.53-7.836.53zm49.076-45.51z" fill="#000"/><path d="M182.635 70.938a64.084 64.084 0 0017.14-3.535c9.317-3.307 15.52-7.962 20.122-11.473a91.606 91.606 0 0014.608-13.969" fill="#fff"/><path d="M182.633 72.973a2.036 2.036 0 01-.134-4.07 62.048 62.048 0 0016.596-3.425c9.206-3.268 15.442-8.025 19.567-11.172a89.837 89.837 0 0014.284-13.65 2.035 2.035 0 113.118 2.617 93.88 93.88 0 01-14.933 14.274c-4.325 3.307-10.867 8.291-20.675 11.773a66.127 66.127 0 01-17.682 3.65 2.682 2.682 0 01-.141.003z" fill="#000"/><path d="M218.5 57.48a105.773 105.773 0 0110.812 13.852c4.25 6.488 9.504 14.664 11.69 26 1.998 10.363 1.084 21.554-2.597 22.738-.995.32-1.543-.299-4.116-.028a15.207 15.207 0 00-6.416 2.188c-1.767 1.123-4.348 2.763-4.94 5.665-.411 2.012.31 3.778 1.204 5.967.786 1.927 1.18 2.891 2.18 3.689 1.106.89 2.172.96 7.006 1.294 4.9.338 4.876.338 4.895.338 1.089.018 5.576.037 12.057-1.7 4.032-1.08 9.54-2.558 15.52-6.706 3.192-2.213 7.08-4.911 10.01-9.977 3.863-6.676 3.807-13.565 3.758-15.96-.127-6.379-2.035-7.498-.984-12.042.46-1.991 1.283-3.75 6.166-10.122a236.586 236.586 0 019.305-11.39" fill="#fff"/><path d="M238.624 141.229h-.438c-.06 0-.06 0-.553-.035l-4.452-.309h-.022c-5.137-.355-6.517-.45-8.119-1.735-1.41-1.132-1.96-2.476-2.79-4.51-.95-2.329-1.848-4.527-1.313-7.145.763-3.749 3.943-5.768 5.842-6.975a17.16 17.16 0 017.3-2.498 12.128 12.128 0 013.284.062c.158.022.353.05.43.051.322-.127 1.527-1.488 2.018-6.196.43-4.152.136-9.334-.806-14.216-2.153-11.174-7.493-19.322-11.392-25.27a103.982 103.982 0 00-10.615-13.582 2.035 2.035 0 012.988-2.764 108.056 108.056 0 0111.03 14.12c4.085 6.233 9.68 14.769 11.988 26.732 1.017 5.257 1.325 10.872.856 15.406-.575 5.56-2.2 8.808-4.834 9.654-.903.291-1.613.19-2.24.102a8.142 8.142 0 00-2.29-.044c-1.965.206-3.859.85-5.541 1.886-1.612 1.017-3.618 2.298-4.038 4.353-.273 1.342.213 2.63 1.094 4.79.745 1.826 1.008 2.425 1.569 2.875.56.45 1.333.537 5.851.85h.023l4.452.308.382.026c1.582.022 5.752-.104 11.449-1.632 3.883-1.04 9.2-2.465 14.89-6.41 3.143-2.183 6.706-4.654 9.413-9.325 2.426-4.198 3.599-9.208 3.484-14.9-.052-2.62-.426-4.27-.763-5.725-.445-1.969-.866-3.829-.176-6.813.556-2.398 1.587-4.442 6.534-10.902a239.27 239.27 0 019.385-11.487 2.035 2.035 0 013.071 2.672 235.289 235.289 0 00-9.225 11.29c-4.848 6.33-5.443 7.81-5.798 9.344-.481 2.078-.233 3.18.18 4.998.354 1.565.794 3.512.855 6.545.127 6.447-1.226 12.173-4.03 17.02-3.158 5.46-7.291 8.326-10.613 10.63-6.27 4.35-11.984 5.881-16.155 6.997-5.634 1.5-9.9 1.762-12.165 1.762zm-.382-4.071z" fill="#000"/><path d="M333.197 43.26c3.598 12.987 8.725 22.389 12.773 28.576 3.093 4.726 6.752 8.996 14.075 17.537 3.32 3.874 10.783 12.543 20.502 22.1 2.333 2.29 9.762 9.523 9.762 9.523-.82.705-2.004 1.703-3.462 2.87-4.335 3.469-4.938 3.98-5.875 5.622-.443.776-1.595 4.464.993 6.316 6.16 4.408 8.196 3.857 10.499 4.05 3.702.307 6.28 0 7.598 0 .907 0 7.989-.097 12.267-3.978 1.71-1.552 4.01-4.65 3.666-20.177-.37-16.641-3.145-19.136-2.009-31.548.636-6.91 1.99-14.256 1.99-14.256 1.526-8.284 2.53-10.103 2.588-14.18.074-5.188-1.672-8.276-5.117-16.722-8.156-19.997-6.522-18.508-9.447-23.6-4.732-8.244-5.864-6.661-12.89-18.108-3.682-5.997-4.707-8.614-8.285-12.004-5.037-4.78-10.397-6.605-13.738-7.776-24.105-8.445-22.075-10.489-34.918-13.64-16.113-3.953-28.506-2.99-46.207-1.615-19.423 1.507-38.424 2.981-59.886 13.037-4.743 2.224-14.182 7.993-33.05 19.53-5.799 3.547-12.444 7.679-20.472 14.104-5.407 4.325-10.33 10.72-13.243 13.56" fill="#fff"/><path d="M395.8 142.026c-1.029 0-2.202-.035-3.505-.145-.264-.022-.537-.033-.827-.046-2.163-.089-4.85-.2-10.686-4.376-1.636-1.171-2.519-3.036-2.483-5.248.024-1.527.473-2.97.908-3.733 1.162-2.035 2.059-2.751 6.372-6.202.57-.456 1.138-.918 1.704-1.388a3458.469 3458.469 0 01-8.16-7.963c-9.978-9.812-17.71-18.827-20.621-22.228-7.37-8.595-11.068-12.91-14.233-17.748-5.705-8.724-10.09-18.53-13.03-29.146a2.035 2.035 0 013.922-1.086c2.83 10.21 7.04 19.632 12.515 28.005 3.02 4.616 6.662 8.864 13.915 17.326 2.882 3.36 10.532 12.283 20.386 21.974 2.302 2.264 9.68 9.444 9.754 9.515l1.595 1.553-1.688 1.45a130.22 130.22 0 01-3.516 2.915c-4.302 3.442-4.655 3.773-5.38 5.042-.007.015-1.075 2.59.41 3.651 4.85 3.47 6.698 3.547 8.486 3.62.32.014.649.027.997.056 2.006.158 4.02.173 6.029.045.537-.028 1-.05 1.4-.052.728 0 7.223-.112 10.903-3.45.915-.83 3.345-3.034 2.999-18.625-.164-7.43-.81-11.94-1.38-15.921-.677-4.744-1.262-8.839-.62-15.854.636-6.923 1.96-14.137 2.015-14.441.615-3.332 1.145-5.611 1.564-7.442.618-2.679.959-4.154.99-6.396.056-3.892-1.017-6.453-3.365-12.064-.478-1.145-1.018-2.431-1.602-3.861-4.064-9.967-5.712-14.629-6.696-17.416-.985-2.787-1.25-3.535-2.631-5.94-2.17-3.781-3.55-5.403-5.146-7.282-1.86-2.19-3.967-4.67-7.714-10.774-.903-1.47-1.647-2.74-2.305-3.859-2.035-3.458-3.147-5.363-5.645-7.734-4.637-4.4-9.575-6.128-12.848-7.272l-.172-.06c-12.235-4.285-17.859-6.968-21.966-8.927-3.967-1.891-6.587-3.14-12.763-4.656-15.793-3.876-27.635-2.956-45.561-1.564-19.569 1.518-38.052 2.953-59.18 12.848-4.647 2.179-14.072 7.943-32.85 19.42-6.314 3.863-12.613 7.834-20.265 13.96-3.48 2.788-6.81 6.529-9.482 9.534-1.39 1.56-2.588 2.905-3.605 3.897a2.035 2.035 0 01-2.842-2.914c.914-.89 2.07-2.19 3.407-3.69 2.779-3.118 6.233-6.996 9.984-10 7.837-6.274 14.256-10.322 20.684-14.248 18.909-11.563 28.397-17.365 33.246-19.637 9.795-4.59 20.005-7.822 31.205-9.883 9.965-1.833 19.844-2.6 29.385-3.34 17.66-1.372 30.42-2.363 46.847 1.669 6.582 1.614 9.502 3.007 13.545 4.935 4.023 1.919 9.532 4.547 21.56 8.76l.17.06c3.377 1.182 9.032 3.16 14.3 8.16 2.916 2.767 4.284 5.099 6.361 8.628.648 1.102 1.382 2.353 2.263 3.79 3.584 5.835 5.583 8.189 7.348 10.266 1.654 1.946 3.217 3.786 5.574 7.887 1.565 2.727 1.939 3.785 2.937 6.615.972 2.751 2.6 7.358 6.628 17.235.576 1.412 1.113 2.695 1.586 3.826 2.417 5.774 3.75 8.954 3.683 13.694-.038 2.671-.46 4.496-1.095 7.25a151.824 151.824 0 00-1.527 7.265c-.014.073-1.348 7.34-1.964 14.074-.6 6.54-.071 10.23.597 14.906.585 4.093 1.249 8.733 1.42 16.41.157 7.115-.212 12.31-1.127 15.88-.864 3.375-2.107 4.851-3.208 5.85-4.706 4.27-12.18 4.504-13.63 4.507-.298 0-.716.021-1.201.047-.814.034-1.842.086-3.075.086z" fill="#000"/><path d="M278.253 94.117a100.835 100.835 0 0016.045 3.307c6.224.763 10.949.75 15.57.74 5.087-.013 10.119-.026 16.764-.943 4.766-.66 9.937-1.4 16.303-3.739a64.007 64.007 0 0014.027-7.227" fill="#fff"/><path d="M308.16 100.191c-4.142 0-8.533-.074-14.11-.756a103.366 103.366 0 01-16.368-3.37l1.145-3.907c5.143 1.5 10.4 2.58 15.718 3.23 6.098.748 10.786.735 15.317.725 5.134-.013 9.983-.026 16.491-.924 4.496-.62 9.59-1.324 15.881-3.633a62.068 62.068 0 0013.58-6.996l2.29 3.362a66.128 66.128 0 01-14.468 7.467c-6.701 2.459-12.26 3.227-16.726 3.844-6.78.936-11.994.95-17.037.962z" fill="#000"/><path d="M184.906 70.746c1.032.265 3.72 1.11 5.43 3.633 1.654 2.44 1.465 5.08 1.303 6.975-.425 4.961-2.722 5.561-3.883 11.188a22.747 22.747 0 00-.233 8.02c.579 3.71 1.983 6.302 2.909 7.976 2.085 3.77 4.384 5.947 8.152 9.457 4.423 4.12 6.692 6.188 9.514 6.514.428.05 5.274.531 8.587-2.965 1.898-2.002 2.373-4.336 2.505-5.232.219-1.475.108-3.119-3.503-10.726-3.053-6.443-3.964-7.341-4.624-7.901-2.898-2.458-6.36-2.9-8.234-2.982" fill="#fff"/><path d="M209.066 126.59c-.402.003-.803-.017-1.203-.06-3.544-.409-6.224-2.907-10.667-7.045-3.635-3.385-6.26-5.832-8.545-9.96-.871-1.576-2.493-4.508-3.14-8.65a24.806 24.806 0 01.255-8.746c.61-2.96 1.506-4.663 2.296-6.165.79-1.502 1.365-2.594 1.553-4.786.136-1.59.322-3.768-.959-5.66-1.22-1.8-3.189-2.53-4.254-2.804l1.018-3.944c1.622.418 4.637 1.554 6.609 4.464 2.09 3.086 1.811 6.344 1.644 8.29-.254 3.011-1.145 4.707-2.005 6.334-.73 1.387-1.418 2.696-1.908 5.088a20.678 20.678 0 00-.215 7.297c.536 3.435 1.878 5.852 2.68 7.304 1.887 3.41 3.849 5.313 7.76 8.953 4.26 3.97 6.232 5.735 8.36 5.98.171.02 4.226.453 6.877-2.344 1.4-1.477 1.835-3.22 1.968-4.128.121-.82.288-1.94-3.327-9.557-2.973-6.263-3.764-6.934-4.103-7.22-2.257-1.909-5.055-2.417-7.005-2.501l.175-4.071c3.708.16 6.982 1.357 9.463 3.463.984.834 2.051 2.055 5.146 8.58 3.858 8.126 3.961 9.987 3.679 11.896-.205 1.383-.872 4.046-3.04 6.334-3.048 3.212-7.092 3.659-9.112 3.659z" fill="#000"/><path d="M217.482 110.228c3.8.48 6.935-.023 9.032-1.908 1.816-1.631 4.026-1.285 6.285-4.453 2.63-3.681 1.768-5.195 3.823-8.443.975-1.541 1.852-3.619 2.162-6.43" fill="#fff"/><path d="M220.003 112.435a22.31 22.31 0 01-2.777-.183l.509-4.04c3.406.43 5.902-.04 7.416-1.399.933-.835 1.908-1.272 2.764-1.653 1.201-.535 2.15-.958 3.225-2.462 1.228-1.717 1.55-2.817 1.925-4.092.348-1.186.743-2.53 1.834-4.256 1-1.58 1.626-3.454 1.86-5.566l4.045.448c-.301 2.732-1.13 5.186-2.464 7.294-.787 1.244-1.057 2.163-1.37 3.226-.417 1.424-.89 3.035-2.517 5.314-1.72 2.404-3.473 3.18-4.881 3.816-.696.31-1.247.556-1.701.963-1.921 1.718-4.56 2.59-7.868 2.59z" fill="#000"/><circle cx="158.269" cy="52.703" r="3.454" fill="#000"/><circle cx="144.95" cy="44.877" r="3.454" fill="#000"/><path d="M131.766 68.681c-2.187.588.013 5.362 1.589 5.627 1.703.286 5.19-4.048 3.394-5.132-1.562-.941-3.254-.958-4.983-.495z" fill="#000"/><path fill="#fff" d="M-237 30.526h195v40h-195z"/><path stroke="#000" stroke-linecap="round" stroke-linejoin="round" d="M-237 30.526h195v40h-195z"/><path d="M-42-9.474l120 60-120 60z" fill="#fff"/><path d="M-42-9.474l120 60-120 60z" stroke="#000" stroke-linecap="round" stroke-linejoin="round"/><path fill="#fff" d="M467.612 30.526h195v40h-195z"/><path stroke="#000" stroke-linecap="round" stroke-linejoin="round" d="M467.612 30.526h195v40h-195z"/><path d="M662.612-9.474l120 60-120 60z" fill="#fff"/><path d="M662.612-9.474l120 60-120 60z" stroke="#000" stroke-linecap="round" stroke-linejoin="round"/><text transform="translate(-587 181)" fill="#000"><tspan font-family="Helvetica Neue" font-size="32" font-weight="400" x="47.589" y="30">Spreadsheet</tspan> <tspan font-family="Helvetica Neue" font-size="32" font-weight="400" x="3.445" y="67.896">test case definition</tspan></text><text transform="translate(134.53 199.896)" fill="#000"><tspan font-family="Helvetica Neue" font-size="32" font-weight="400" x="82.565" y="30">Nanook</tspan></text><text transform="translate(883.674 181)" fill="#000"><tspan font-family="Helvetica Neue" font-size="32" font-weight="400" x="31.589" y="30">Test cases and</tspan> <tspan font-family="Helvetica Neue" font-size="32" font-weight="400" x="75.445" y="67.896">test data</tspan></text></g></svg>