<svg xmlns="http://www.w3.org/2000/svg" xmlns:xlink="http://www.w3.org/1999/xlink" viewBox="0 0 640 640"><defs><path d="M406.62 121.96l2.42.06 2.41.08 2.41.11 2.42.14 2.42.16 2.42.19 2.43.22 2.44.25 2.45.28 2.46.31 2.48.34 2.49.37 2.52.41 2.53.45 2.55.48 2.57.52 2.6.55 2.62.6 2.66.63 1.05.26 1.03.26.99.26.97.26.95.25.92.26.9.25.87.25.85.26.83.25.81.25.79.25.77.25.76.26.74.25.73.25.71.25.69.26.69.25.67.26.67.26.65.26.65.26.63.26.64.26.62.27.62.27.62.27.62.27.61.28.62.28.61.28.62.28.61.29.63.29.62.3.63.3.64.3.64.31.65.31.66.31.68.32.68.33.7.33.72.34.74.35.75.35.77.36.8.37.81.37.84.38.85.39.89.4.91.4.93.42.97.42.99.43 1.02.44 1.05.45 1.08.46 1.12.46 1.15.48 1.18.49 1.22.49 1.25.51 1.3.51 1.33.53 1.37.54 1.41.55 1.46.56 1.49.57 1.54.58 1.59.59 1.63.6 1.68.62 1.72.63 1.78.64 1.82.65 1.87.67 1.93.67.37.13.56.2.57.2.6.21.61.22.62.22.64.24.66.24.67.25.69.27.7.27.71.28.73.3.73.31.75.32.76.33.77.35.78.36.79.37.8.39.81.41.81.42.82.43.83.45.83.47.84.49.85.5.84.52.86.54.85.56.86.58.86.6.86.62.87.64.86.66.87.69.86.7.86.73.87.75.86.78.85.8.47.45.46.44.44.44.43.44.42.44.41.43.41.44.39.43.38.43.38.43.36.43.36.43.35.43.35.44.34.43.33.43.33.44.32.44.32.44.32.44.31.45.31.45.31.45.3.46.3.46.31.47.3.47.3.48.3.48.3.49.31.5.3.5.31.51.31.51.31.53.32.53.32.54.32.55.33.56.33.57.11.18.11.18.1.18.11.19.11.18.11.19.11.18.11.19.11.19.11.19.12.19.11.2.11.19.12.2.12.19.11.2.12.2.12.2.12.21.12.2.13.21.12.2.12.21.13.21.12.21.13.21.13.22.13.21.13.22.13.22.13.22.14.22.13.22.14.22.13.23.14.22.14.23.14.23.14.23.14.23.58.94.56.9.55.88.54.86.53.82.51.8.51.78.49.76.48.73.47.71.47.68.45.67.44.64.43.63.43.6.41.59.41.57.4.55.39.54.38.52.38.51.37.49.36.47.36.46.34.45.35.44.34.43.33.42.32.4.33.4.31.39.31.38.31.37.31.37.3.35.3.36.29.35.29.34.29.34.29.34.27.32.27.31.26.32.27.32.27.31.27.32.26.32.27.32.27.33.27.33.27.33.27.34.28.34.27.35.28.36.28.36.28.36.28.38.29.38.28.39.3.4.29.41.3.42.3.43.3.43.31.45.31.47.32.47.32.49.32.5.33.51.34.53.34.54.34.56.35.57.36.59.36.6.37.62.37.64.38.66.25.43.24.43.23.41.22.4.22.39.2.38.2.37.19.36.19.35.18.35.17.33.17.34.16.33.16.32.15.32.15.32.14.31.15.31.13.31.14.32.13.31.13.31.13.32.13.31.13.32.13.33.13.33.12.33.13.34.13.35.13.35.13.36.14.38.13.38.14.39.15.4.14.41.15.43.16.44.16.45.16.45.17.47.17.49.18.51.18.52.2.54.2.56.2.58.22.6.22.62.24.64.24.67.25.68.26.72.28.74.28.76.29.79.31.82.31.84.33.87.34.9.36.93.37.97.38.99.39 1.02.41 1.06.42 1.09.44 1.12.46 1.16.46 1.19.49 1.23.5 1.27.52 1.3.53 1.34.55 1.38.57 1.42.59 1.45.61 1.5.62 1.54.65 1.59.09.23.1.22.09.23.09.23.09.22.09.22.1.23.09.22.09.22.09.22.09.21.09.22.09.22.09.21.08.21.09.22.09.21.09.21.08.21.09.21.09.2.08.21.09.2.08.21.09.2.08.2.08.2.09.2.08.19.08.2.08.2.08.19.08.19.08.19.08.19.08.19.08.19.08.19.15.37.39.93.38.9.37.89.36.87.35.85.35.84.33.81.33.81.31.79.31.77.29.76.29.76.28.74.27.73.25.72.25.71.24.7.23.7.22.69.21.69.2.69.18.67.18.68.17.68.16.67.14.68.14.67.13.68.11.68.11.68.09.69.09.69.07.7.06.71.05.71.04.72.03.73.02.74v1.52l-.01.43-.01.42-.02.42-.01.41-.02.41-.03.4-.02.4-.03.39-.03.39-.04.38-.03.38-.04.38-.04.38-.05.37-.05.37-.05.37-.05.37-.06.37-.05.37-.06.37-.07.37-.06.37-.07.37-.07.37-.07.37-.08.38-.07.38-.08.38-.08.38-.08.39-.09.39-.09.4-.09.4-.09.41-.09.41-.1.41-.09.43-.1.43-.1.43-.1.45-.07.29-.07.29-.07.3-.07.31-.07.31-.07.31-.07.32-.08.32-.07.32-.08.33-.07.34-.08.34-.08.34-.07.35-.08.35-.08.36-.08.37-.08.37-.09.38-.08.38-.08.39-.08.39-.09.4-.09.41-.08.41-.09.42-.09.43-.08.43-.09.44-.09.45-.09.45-.09.46-.1.47-.09.48-.09.48-.1.49-.09.5-.1.51-.09.51-.1.52-.01.05-.02.09-.02.16-.04.2-.05.26-.05.31-.06.36-.08.4-.07.46-.09.49-.09.54-.1.58-.1.62-.11.66-.12.69-.12.73-.12.76-.13.8-.12.82-.14.85-.13.88-.14.91-.14.93-.14.95-.14.97-.14.99-.14 1.01-.14 1.02-.14 1.04-.14 1.06-.14 1.06-.13 1.07-.13 1.08-.13 1.09-.13 1.1-.12 1.09-.12 1.1-.11 1.1-.11 1.1-.1 1.09-.1 1.05-.08 1.03-.07 1.01-.07.99-.06.96-.05.95-.04.93-.03.91-.03.89-.02.88-.01.86-.01.85v.83l.01.82.02.81.02.8.02.78.03.78.04.77.04.75.05.76.06.74.05.74.07.73.06.73.07.73.08.72.08.72.08.72.09.72.08.71.1.72.09.72.1.73.1.73.1.73.1.73.11.74.1.75.11.76.09.66.1.68.1.67.09.69.1.69.1.69.09.71.1.71.1.72.09.73.1.74.09.75.1.76.09.77.09.78.09.8.09.8.09.82.09.84.08.84.09.86.08.88.08.89.08.91.07.93.08.94.07.96.07.98.06.99.07 1.02.06 1.03.05 1.06.06 1.08.05 1.09.05 1.12.04 1.14.04 1.17.04 1.18.03 1.21.03 1.24.03 1.14.02 1.14.01 1.11.01 1.1.01 1.09v2.12l-.01 1.05-.01 1.02-.02 1.01-.01.99-.03.98-.03.97-.03.95-.04.94-.04.92-.04.9-.05.89-.06.88-.05.86-.07.85-.07.84-.07.82-.07.8-.08.79-.09.78-.09.76-.09.75-.1.74-.1.72-.11.71-.11.69-.11.68-.12.67-.13.65-.13.64-.13.63-.14.61-.14.6-.14.59-.15.54-.14.52-.15.51-.15.5-.15.48-.16.47-.16.45-.16.44-.16.43-.16.42-.17.4-.17.39-.17.38-.17.36-.18.36-.17.34-.18.33-.18.33-.18.31-.18.3-.18.29-.18.29-.18.27-.19.27-.18.25-.18.25-.19.24-.18.24-.19.22-.18.22-.19.21-.18.21-.19.2-.18.19-.18.19-.19.18-.18.18-.18.17-.18.17-.18.17-.78.67-.79.65-.82.61-.83.58-.85.56-.86.52-.87.5-.88.47-.89.44-.9.42-.9.39-.91.37-.9.34-.91.32-.9.3-.9.28-.89.26-.88.24-.88.22-.86.2-.85.18-.83.17-.82.15-.8.14-.78.12-.76.11-.73.09-.71.09-.68.07-.65.06-.62.06-.58.04-.56.04-.51.03-.48.02-.44.02-.39.01-.35.01h-.88l-.05.01h-.35l-.06.01h-.19l-.06.01h-.2l-.06.01h-.14l-.07.01h-.14l-.07.01h-.14l-.08.01h-.14l-.08.01h-.07l-.08.01h-.15l-.16.01-.13.01h-.14l-.14.01-.13.01h-.14l-.15.01h-.14l-.14.01-.15.01h-.15l-.15.01-.15.01h-.16l-.15.01h-.16l-.16.01-.16.01h-.16l-.16.01h-.17l-.17.01-.17.01h-.17l-.17.01h-.17l-.18.01h-.36l-.18.01h-.36l-.19.01h-.38l-.19.01h-1.83l-.17-.01h-.53l-.18-.01h-.36l-.18-.01h-.18l-.18-.01h-.19l-.19-.01h-.18l-.19-.01-.19-.01-.19-.01h-.19l-.19-.01-.2-.01-.19-.01-.2-.01-.2-.01-.2-.01-.19-.01-.2-.01-.21-.02-.2-.01-.2-.01-.21-.02-.2-.01-.21-.02-.21-.01-.21-.02-.21-.02-.21-.01-.04-.01h-.09l-.04-.01h-.09l-.04-.01h-.09l-.04-.01h-.13l-.05-.01h-.13l-.04-.01h-.14l-.04-.01h-.18l-.05-.01h-.18l-.05-.01h-.13l-.1-.01h-.14l-.35-.02-.36-.01-.36-.02-.37-.02-.38-.02-.38-.03-.39-.04-.4-.03-.41-.05-.41-.05-.43-.06-.43-.08-.45-.08-.46-.09-.47-.1-.48-.12-.49-.13-.51-.14-.52-.16-.53-.17-.55-.19-.57-.21-.58-.23-.6-.24-.62-.27-.63-.28-.65-.31-.67-.33-.69-.35-.71-.38-.73-.4-.75-.43-.77-.45-.79-.48-.81-.51-.84-.54-.86-.57-.89-.6-.91-.63-.93-.66-.27-.19-.25-.2-.25-.2-.25-.21-.23-.22-.24-.22-.22-.22-.22-.23-.21-.24-.21-.24-.2-.24-.19-.26-.19-.25-.18-.26-.17-.26-.17-.27-.16-.28-.15-.28-.15-.28-.14-.28-.13-.3-.13-.29-.12-.3-.11-.3-.11-.31-.1-.31-.09-.32-.08-.31-.08-.33-.07-.32-.06-.33-.06-.33-.05-.34-.04-.34-.04-.34-.02-.35-.02-.35-.02-.35v-.71l.01-.25v-.25l.02-.24.01-.25.02-.24.02-.24.03-.24.02-.24.03-.24.04-.24.03-.23.04-.23.04-.23.04-.23.05-.23.04-.22.05-.22.05-.22.06-.21.05-.21.06-.21.05-.21.06-.2.06-.2.06-.19.07-.19.06-.19.07-.18.06-.18.07-.18.07-.17.07-.17.06-.16.07-.15.07-.16.07-.14.07-.15.08-.13.07-.14.07-.12.18-.33.19-.31.19-.31.18-.3.19-.29.19-.28.19-.28.19-.27.2-.27.2-.27.21-.26.21-.26.22-.26.23-.27.23-.26.25-.26.25-.27.27-.27.28-.27.29-.28.3-.28.31-.29.33-.3.35-.31.36-.31.37-.33.4-.33.41-.35.43-.36.45-.37.47-.39.49-.4.52-.42.53-.43.56-.45.58-.47.61-.49.64-.5.66-.53.68-.55.14-.11.14-.11.13-.11.14-.11.13-.1.13-.11.12-.1.13-.1.13-.1.12-.1.12-.1.12-.1.11-.09.11-.09.12-.09.1-.09.11-.09.1-.08.1-.09.1-.08.1-.07.09-.08.09-.07.09-.07.08-.07.08-.07.08-.06.07-.06.07-.06.25-.21.05-.04.05-.04.05-.04.04-.03.04-.03.03-.03.03-.03-.38-.37-.4-.39-.42-.4-.42-.42-.44-.42-.45-.44-.45-.44-.47-.46-.47-.46-.48-.47-.49-.47-.49-.48-.5-.49-.5-.48-.51-.49-.5-.5-.51-.49-.5-.49-.51-.49-.5-.5-.5-.48-.5-.49-.49-.48-.48-.47-.48-.47-.48-.46-.46-.46-.46-.44-.44-.44-.44-.42-.42-.41-.41-.4-.4-.39-.38-.38-.37-.36-.35-.34-.33-.33-.32-.3-.29-.3-.28-.27-1.61-1.59-1.59-1.58-1.57-1.57-1.56-1.57-1.53-1.55-1.51-1.54-1.49-1.54-1.47-1.51-1.45-1.51-1.42-1.48-1.4-1.47-1.38-1.46-1.35-1.43-1.32-1.42-1.3-1.4-1.28-1.37-1.25-1.36-1.22-1.33-1.19-1.3-1.17-1.28-1.13-1.26-1.11-1.23-1.08-1.2-1.05-1.17-1.01-1.14-.99-1.11-.95-1.08-.92-1.04-.89-1.02-.86-.97-.82-.94-.78-.91-.76-.86-.71-.83-.68-.79-.64-.75-.61-.7-.57-.67-.53-.62-.49-.57-1.18-1.38-1.16-1.34-1.12-1.32-.13-.15-.22.14-.74.48-.75.47-.74.47-.76.47-.75.46-.76.45-.76.45-.76.45-.77.44-.76.43-.77.44-.78.42-.15.08.12.36.2.63.2.64.19.64.19.63.18.64.17.65.17.64.17.64.16.65.15.64.15.65.15.65.14.65.13.65.13.65.12.66.12.65.11.66.11.65.1.66.09.66.09.66.09.66.08.66.07.66.07.66.07.66.05.67.06.66.04.67.03.39.02.39.03.4.02.39.02.39.01.4.02.39.01.39.01.4.01.39v.4l.01.39v1.18l-.01.39v.4l-.01.39-.01.39-.01.4-.01.39-.02.39-.01.4-.02.39-.03.39-.02.4-.02.39-.03.39-.03.4-.03.39-.03.39-.04.39-.04.39-.03.4-.04.39-.05.39-.04.39-.05.39-.05.39-.05.39-.14.97-.14.94-.16.94-.17.92-.18.91-.18.9-.19.88-.2.87-.21.85-.22.84-.22.83-.23.81-.23.79-.24.79-.24.77-.24.75-.25.74-.26.72-.25.71-.26.69-.26.67-.26.66-.26.65-.26.63-.26.61-.26.59-.25.58-.26.56-.26.55-.25.53-.25.51-.24.49-.25.48-.23.45-.24.44-.22.43-.22.4-.22.39-.21.36-.2.35-.3.52-.3.52-.31.52-.31.54-.33.54-.33.55-.34.56-.34.56-.36.57-.36.57-.37.57-.38.58-.39.58-.41.58-.41.59-.42.58-.44.58-.44.59-.46.58-.47.59-.49.58-.49.58-.51.57-.53.57-.54.57-.55.56-.57.56-.58.55-.6.55-.62.54-.63.53-.65.52-.67.52-.68.5-.7.5-.72.48-.74.48-.76.46-.78.45-.8.44-.26.14-.25.13-.26.13-.25.12-.26.12-.26.11-.27.12-.28.1-.29.11-.3.1-.31.1-.33.1-.36.1-.37.1-.4.09-.42.1-.45.1-.48.09-.51.1-.55.1-.58.1-.62.11-.66.11-.71.1-.75.12-.79.11-.85.13-.89.12-.95.13-1.01.14-1.06.14-1.12.14-1.19.16-1.24.16-1.32.17-1.38.17-1.45.18-1.53.2-1.6.2-1.67.2-.71.09-.7.09-.69.08-.67.09-.66.08-.65.08-.64.08-.62.07-.62.08-.6.07-.59.07-.58.07-.57.06-.56.07-.55.06-.54.06-.53.06-.52.05-.51.06-.49.05-.5.05-.48.05-.47.04-.46.04-.46.04-.44.04-.44.04-.43.03-.43.03-.41.03-.41.03-.4.02-.4.02-.38.02-.38.01-.38.01-.36.01-.37.01-.35.01h-.67l-.31-.01h-.31l-.3-.01-.3-.01-.3-.02-.29-.01-.29-.02-.29-.02-.28-.03-.28-.02-.27-.03-.27-.03-.27-.04-.27-.04-.27-.04-.26-.04-.26-.04-.26-.05-.26-.05-.25-.06-.26-.05-.25-.06-.25-.07-.25-.06-.25-.07-.25-.07-.24-.08-.25-.08-.25-.08-.24-.08-.25-.09-.25-.09-.24-.09-.25-.1-.25-.1-.25-.1-.25-.11-.25-.11-.25-.11-.76-.36-.74-.36-.71-.37-.68-.37-.66-.37-.63-.38-.6-.39-.58-.38-.56-.39-.53-.39-.51-.4-.49-.39-.46-.4-.44-.4-.42-.4-.4-.4-.38-.4-.36-.41-.34-.4-.32-.4-.31-.4-.28-.4-.27-.4-.25-.4-.23-.39-.22-.39-.2-.39-.19-.39-.18-.38-.16-.38-.14-.38-.14-.37-.12-.37-.11-.37-.09-.35-.09-.36-.07-.35-.07-.34-.06-.33-.04-.33-.04-.32-.03-.32-.03-.32-.01-.31-.01-.32-.01-.32.01-.32.01-.32.02-.32.02-.32.04-.33.04-.32.04-.32.06-.32.06-.33.06-.32.08-.32.08-.33.09-.32.1-.32.1-.33.11-.32.11-.33.13-.32.13-.33.14-.32.14-.33.15-.32.16-.33.17-.33.17-.32.18-.33.18-.33.2-.32.2-.33.2-.33.22-.32.22-.33.23-.33.23-.33.17-.22.17-.23.17-.22.18-.22.18-.23.19-.22.19-.22.19-.21.2-.22.2-.22.2-.21.21-.21.21-.21.22-.21.22-.21.22-.21.23-.2.23-.21.23-.2.24-.2.24-.2.24-.2.25-.2.25-.2.26-.19.26-.19.26-.2.26-.19.27-.18.28-.19.27-.19.28-.18.28-.19.29-.18.29-.18.29-.18.3-.17.3-.18.31-.17.3-.18.1-.05.09-.05.09-.05.1-.05.09-.05.09-.05.1-.05.09-.05.1-.05.09-.05.09-.05.1-.05.09-.05.1-.05.09-.05.1-.04.09-.05.1-.05.09-.05.1-.04.09-.05.1-.05.1-.04.09-.05.1-.05.09-.04.1-.05.1-.04.09-.05.1-.04.1-.04.1-.05.09-.04.1-.05.1-.04.09-.04.1-.05.1-.04.1-.04.1-.04.14-.06.09-.04.05-.02.05-.02.04-.02.04-.02.05-.01.04-.02.04-.02.04-.02.05-.01.04-.02.04-.02.04-.01.04-.02.03-.02.04-.01.04-.02.04-.01.03-.02.04-.01.04-.02.03-.01.04-.01.03-.02.04-.01.03-.01.03-.02.04-.01.03-.01.03-.01.03-.01.03-.02.03-.01.03-.01.03-.01.03-.01.15-.06.15-.07.15-.07.14-.08.15-.07.15-.08.16-.07.15-.09.15-.08.15-.08.15-.09.15-.09.15-.09.15-.09.15-.1.14-.1.15-.1.14-.1.14-.1.14-.11.14-.11.13-.11.13-.11.13-.11.13-.12.12-.12.12-.12.11-.12.11-.13.11-.13.1-.13.1-.13.09-.13.09-.14.09-.13.07-.15.08-.14.06-.14.06-.15.06-.15.04-.12.04-.13.03-.14.03-.13.02-.13.01-.14.02-.14v-.14l.01-.14-.01-.15v-.14l-.01-.15-.02-.16-.02-.16-.03-.16-.03-.16-.03-.17-.04-.17-.04-.18-.05-.18-.05-.18-.05-.19-.06-.19-.07-.2-.06-.21-.08-.2-.07-.22-.08-.22-.08-.22-.09-.23-.09-.24-.1-.24-.1-.25-.1-.25-.1-.27-.11-.26-.11-.28-.12-.28-.12-.29-.12-.3-.08-.19-.04-.1-.05-.1-.04-.1-.04-.1-.04-.1-.04-.1-.04-.11-.05-.1-.04-.1-.04-.11-.04-.1-.05-.11-.04-.1-.04-.11-.05-.11-.04-.11-.04-.1-.05-.11-.04-.11-.05-.11-.04-.11-.05-.12-.04-.11-.04-.11-.05-.11-.04-.12-.05-.11-.04-.12-.05-.11-.04-.12-.05-.12-.04-.12-.05-.11-.04-.12-.05-.12-.04-.12-.05-.12-.04-.12-.17-.47-.17-.46-.16-.46-.16-.47-.16-.47-.15-.46-.15-.47-.15-.47-.15-.47-.14-.47-.14-.47-.14-.47-.13-.47-.14-.48-.12-.47-.13-.48-.12-.47-.12-.48-.12-.48-.12-.47-.11-.48-.11-.48-.1-.48-.11-.48-.1-.48-.1-.48-.09-.48-.09-.49-.09-.48-.09-.48-.08-.49-.06-.38-.62.01-.85.01-.85.01-.84.01-.83.01h-.84l-.83.01h-1.65l-.83.01h-1.64l-3.71-.01h-2.7l-.69-.01h-.69l-.68-.01h-.7l-.69-.01-.71-.01-.7-.02-.71-.01-.71-.02-.72-.01-.72-.02-.73-.03-.73-.02-.74-.03-.74-.03-.75-.03-.75-.04-.76-.03-.77-.04-.77-.05-.78-.05-.78-.05-.8-.05-.8-.06-.8-.06-.82-.06-.82-.07-.83-.08-.84-.07-.85-.08-.85-.09-.87-.09-.87-.09-.88-.1-.89-.1-.91-.11-.89-.11-.9-.12-.9-.12-.9-.12-.9-.13-.89-.13-.9-.13-.89-.14-.9-.14-.89-.15-.89-.15-.9-.15-.89-.15-.89-.16-.89-.17-.89-.16-.89-.17-.89-.18-.89-.17-.88-.18-.89-.19-.88-.19-.89-.19-.88-.19-.89-.2-.88-.2-.88-.21-.88-.21-.88-.21-.88-.22-.88-.22-.88-.22-.87-.23-.17-.04.03.16.04.26.05.25.06.26.05.26.05.27.06.27.06.27.06.28.07.28.06.28.07.3.06.25.05.26.06.26.06.27.06.27.06.27.06.28.06.28.06.29.06.29.06.29.06.3.06.3.06.31.06.32.05.32.06.32.06.33.05.34.05.34.06.35.05.35.05.36.04.37.05.37.04.38.05.39.04.39.04.4.03.41.04.41.03.43.03.43.03.43.03.45.02.46.02.46.02.47.01.48.01.49.02 1.04v1.04l-.01 1.03-.02 1.03-.04 1.02-.04 1.01-.06 1.01-.07 1-.08 1-.09.99-.11.98-.11.98-.13.97-.14.96-.16.96-.16.95-.18.95-.19.94-.2.93-.21.93-.23.92-.23.91-.25.91-.26.9-.27.89-.29.89-.29.88-.31.88-.32.86-.33.86-.34.86-.36.84-.37.84-.37.83-.39.83-.41.82-.41.81-.43.81-.43.79-.45.79-.52.88-.52.86-.54.83-.53.82-.55.79-.55.78-.56.76-.56.74-.57.72-.57.71-.57.68-.58.68-.59.65-.58.64-.59.63-.6.61-.59.59-.59.58-.6.57-.6.55-.6.55-.6.53-.6.51-.6.51-.59.49-.6.49-.6.47-.59.46-.59.46-.59.44-.58.44-.59.43-.58.42-.57.41-.57.4-.57.4-.56.4-.55.38-.55.38-.54.38-1.02.7-1.01.67-1 .65-1.01.63-.99.61-.99.58-.99.57-.98.55-.97.53-.96.51-.96.49-.96.48-.94.46-.94.44-.93.43-.93.41-.91.39-.91.38-.9.37-.89.35-.89.34-.87.33-.87.31-.86.31-.84.29-.84.28-.83.27-.82.26-.81.25-.79.25-.79.23-.78.23-.76.22-.76.21-.74.21-.73.2-.72.2-.71.19-.7.19-.68.18-.91.24-.9.23-.88.22-.88.21-.86.2-.85.19-.84.18-.83.17-.82.17-.8.16-.79.14-.78.15-.77.13-.75.13-.74.11-.73.12-.71.1-.7.1-.69.09-.67.08-.66.08-.65.08-.63.06-.62.07-.61.05-.59.05-.57.05-.56.04-.55.04-.53.03-.52.03-.5.03-.48.02-.47.02-.46.01-.44.01-.42.01-.41.01h-1.94l-.02-.01h-.14l-.07-.01-.08-.01h-.14l-.11-.01-.06-.01h-.06l-.29-.02-9.64-.67h-.05l-.82-.06-.79-.05-.76-.06-.73-.05-.71-.05-.67-.05-.66-.05-.63-.05-.6-.05-.58-.05-.56-.05-.54-.05-.51-.06-.5-.06-.47-.05-.46-.06-.44-.07-.43-.06-.41-.07-.39-.07-.38-.08-.36-.08-.35-.08-.34-.09-.33-.1-.32-.1-.31-.1-.3-.11-.3-.12-.28-.12-.28-.13-.27-.14-.27-.15-.27-.15-.26-.16-.26-.17-.26-.17-.26-.19-.26-.19-.26-.21-.22-.18-.22-.19-.21-.19-.21-.19-.2-.19-.19-.19-.19-.2-.19-.2-.17-.2-.18-.21-.16-.2-.17-.21-.16-.22-.15-.21-.16-.22-.15-.22-.14-.23-.14-.23-.14-.23-.14-.24-.13-.24-.14-.24-.13-.25-.13-.25-.12-.25-.13-.26-.12-.27-.13-.26-.12-.28-.13-.27-.12-.28-.12-.29-.13-.29-.12-.3-.13-.3-.13-.31-.12-.31-.13-.31-.14-.33-.13-.32-.15-.38-.16-.38-.15-.37-.15-.38-.15-.37-.15-.38-.14-.37-.15-.37-.14-.38-.13-.37-.14-.37-.13-.38-.13-.37-.12-.37-.12-.38-.11-.37-.11-.38-.1-.38-.1-.37-.1-.38-.08-.38-.08-.38-.08-.39-.06-.38-.06-.38-.06-.39-.04-.39-.04-.39-.02-.4-.02-.39-.02-.4v-.4l.01-.4.02-.41.02-.41.04-.41.05-.41.06-.42.07-.42.08-.42.13-.6.15-.59.18-.57.18-.57.21-.54.22-.54.23-.52.25-.51.27-.49.27-.49.29-.47.3-.46.31-.45.32-.43.33-.43.34-.41.35-.4.35-.39.36-.38.36-.37.37-.36.37-.35.38-.34.38-.33.37-.33.38-.31.39-.3.37-.29.38-.29.38-.27.37-.27.37-.26.37-.25.36-.24.35-.24.35-.22.34-.22.33-.22.32-.2.32-.2.36-.22.36-.22.37-.21.36-.21.37-.21.37-.2.38-.19.37-.19.38-.19.38-.18.38-.18.38-.17.39-.17.39-.17.38-.16.39-.16.4-.15.39-.14.4-.15.39-.14.4-.13.4-.13.4-.12.4-.12.41-.12.4-.11.41-.11.41-.1.41-.1.41-.09.41-.09.41-.08.42-.08.41-.07.42-.07.42-.07.41-.06.42-.05.42-.06.42-.04.18-.02.18-.02.17-.02.18-.01.18-.02.18-.01.18-.02.17-.01.18-.01.18-.01.18-.01h.18l.17-.01h.18l.18-.01h.89l.18.01h.18l.18.01.17.01.18.01.18.01.18.01.18.01.17.01.18.02.18.01.18.02.17.02.18.02.18.02.18.02.17.03.18.02.18.03.17.02.05.01.14.02.05.01h.06l.05.01.05.01h.03l.05.01h.03l.02.01h.08l.02.01h.05l.02.01h.09l.02.01h.12l.06-.02.06-.04.07-.04.08-.06.08-.07.08-.09.1-.09.09-.11.11-.12.1-.13.11-.15.11-.17.12-.18.12-.19.12-.21.13-.23.12-.25.13-.26.13-.28.13-.29.13-.32.13-.34.13-.35.14-.38.13-.39.13-.42.12-.43.13-.46.13-.48.12-.5.12-.53.12-.55.11-.57.11-.6.11-.62.1-.65.1-.67.09-.7.09-.72.08-.75.07-.68.06-.69.06-.69.04-.7.05-.71.04-.72.03-.72.02-.73.02-.74.02-.74.01-.74v-1.51l-.01-.77-.01-.76-.02-.77-.03-.78-.03-.78-.03-.78-.05-.79-.04-.79-.06-.79-.06-.79-.06-.8-.07-.8-.07-.8-.08-.8-.09-.8-.09-.8-.1-.81-.1-.8-.11-.8-.11-.81-.12-.8-.12-.8-.13-.8-.14-.8-.14-.8-.14-.8-.15-.79-.36-1.8-.39-1.78-.03-.11-.13.23-.26.44-.27.43-.16.25-.15.25-.14.24-.14.24-.13.23-.13.24-.12.23-.12.22-.11.23-.11.22-.1.22-.1.22-.1.21-.09.21-.09.22-.08.21-.08.21-.08.21-.08.2-.07.21-.07.21-.07.21-.07.2-.07.21-.06.21-.07.2-.06.21-.07.21-.06.21-.06.22-.06.21-.07.21-.08.29-.09.3-.09.29-.09.3-.09.3-.09.31-.1.31-.11.31-.1.31-.11.32-.12.33-.12.33-.13.33-.13.34-.14.34-.15.35-.16.36-.16.36-.17.36-.18.37-.19.38-.21.38-.21.4-.22.39-.23.41-.24.41-.26.42-.27.42-.28.44-.3.44-.31.45-.32.46-.35.48-.35.45-.35.44-.35.42-.35.4-.35.39-.34.36-.35.35-.35.33-.35.32-.34.31-.34.29-.35.27-.34.27-.34.25-.34.23-.33.23-.33.22-.34.21-.32.19-.33.19-.32.18-.32.17-.32.17-.32.16-.31.15-.31.15-.3.14-.3.14-.3.14-.29.13-.29.13-.14.06-.14.06-.13.07-.14.06-.13.06-.13.06-.13.06-.13.06-.13.05-.12.06-.12.06-.12.06-.12.06-.12.06-.12.06-.11.06-.12.07-.11.06-.11.06-.11.07-.11.06-.1.07-.11.06-.1.07-.1.07-.1.07-.1.08-.1.07-.1.08-.09.07-.1.08-.09.09-.39.34-.41.33-.41.32-.42.31-.43.3-.44.29-.45.28-.46.27-.46.26-.48.24-.48.24-.5.22-.5.22-.51.2-.52.19-.53.18-.54.17-.54.16-.56.15-.56.14-.58.13-.58.11-.59.11-.6.09-.6.08-.62.07-.62.06-.64.05-.64.04-.32.02.01.05.18.59.17.58.14.54.13.52.11.5.1.48.09.46.07.44.06.42.05.41.03.39.03.37.01.37.01.35-.01.34-.01.34-.02.32-.02.33-.03.31-.04.32-.04.31-.04.31-.04.23-.04.24-.04.25-.05.25-.05.27-.06.28-.06.28-.07.3-.07.3-.08.31-.08.31-.09.32-.1.33-.1.34-.11.34-.12.34-.12.35-.13.36-.14.35-.15.37-.15.37-.17.37-.17.37-.18.37-.19.38-.19.38-.21.39-.22.38-.22.38-.24.39-.24.38-.26.39-.27.38-.27.39-.29.38-.3.38-.31.38-.33.38-.33.38-.35.37-.49.51-.51.49-.51.47-.52.44-.53.43-.53.4-.53.39-.54.36-.54.35-.55.33-.54.31-.55.3-.55.28-.55.26-.54.24-.55.23-.55.22-.54.2-.54.19-.53.17-.54.16-.52.15-.52.13-.52.13-.51.11-.5.1-.5.09-.48.08-.48.08-.46.06-.46.06-.45.04-.43.05-.42.03-.41.03-.4.02-.38.01-.37.01-.35.01h-.99l-.06-.01h-.26l-.07-.01h-.19l-.07-.01h-.13l-.06-.01h-.07l-.06-.01h-.13l-.07-.01h-.06l-.07-.01h-.06l-.07-.01h-.06l-.07-.01-.06-.01h-.07l-.06-.01h-.07l-.06-.01-.07-.01-.57-.07-.56-.1-.56-.1-.56-.13-.55-.14-.54-.16-.54-.17-.54-.2-.54-.2-.53-.23-.53-.24-.53-.25-.53-.27-.53-.29-.53-.3-.53-.32-.53-.34-.54-.34-.53-.37-.54-.38-.55-.39-.55-.41-.55-.43-.56-.44-.56-.45-.57-.47-.58-.49-.58-.5-.59-.51-.6-.53-.61-.54-.62-.55-.63-.57-.64-.58-.65-.6-.67-.61-.67-.63-.69-.64-.7-.65-.71-.66-.59-.55-.58-.54-.57-.53-.56-.53-.55-.52-.55-.51-.54-.52-.53-.5-.53-.51-.52-.5-.51-.5-.5-.49-.5-.5-.49-.5-.49-.49-.48-.5-.47-.49-.47-.5-.46-.5-.46-.5-.45-.51-.44-.51-.44-.51-.44-.52-.43-.52-.43-.53-.42-.53-.41-.54-.41-.55-.41-.56-.4-.56-.4-.58-.4-.58-.39-.59-.39-.61-.38-.61-.39-.63-.37-.63-.38-.66-.37-.66-.15-.26-.15-.27-.15-.29-.16-.29-.17-.3-.17-.32-.17-.33-.18-.33-.18-.35-.18-.36-.19-.37-.19-.38-.19-.39-.19-.41-.19-.41-.2-.42-.19-.43-.2-.45-.19-.45-.19-.47-.2-.47-.19-.49-.19-.5-.19-.5-.18-.52-.18-.53-.18-.53-.18-.55-.17-.56-.17-.57-.17-.57-.16-.59-.15-.6-.15-.61-.14-.62-.14-.63-.13-.63-.12-.65-.12-.66-.11-.67-.07-.47-.06-.47-.06-.48-.06-.47-.05-.47-.05-.48-.04-.47-.04-.48-.03-.47-.03-.48-.03-.47-.02-.48-.02-.47-.01-.48-.01-.47-.01-.48v-.47l.01-.48V420l.01-.48.02-.47.02-.48.02-.47.03-.48.04-.47.03-.48.04-.47.05-.47.05-.48.05-.47.06-.47.06-.48.07-.47.07-.47.07-.47.08-.47.09-.47.08-.47.1-.46.09-.47.1-.48.1-.46.11-.46.11-.44.1-.44.11-.43.12-.42.11-.41.12-.4.12-.39.11-.39.12-.38.13-.37.12-.36.12-.35.13-.35.13-.34.12-.34.13-.33.13-.32.13-.31.13-.32.13-.3.13-.3.14-.3.13-.29.13-.28.13-.28.14-.28.13-.27.13-.27.14-.27.13-.26.13-.26.13-.25.13-.26.13-.25.13-.25.13-.24.13-.25.13-.24.13-.24.12-.24.12-.23.12-.23.12-.23.12-.23.11-.23.11-.23.11-.22.11-.23.11-.22.1-.23.1-.23.1-.23.1-.22.09-.24.09-.23.09-.23.09-.24.09-.24.08-.24.08-.25.08-.25.07-.25.08-.26.07-.27.06-.26.07-.28.06-.28.06-.28.05-.29.06-.3.05-.3.04-.32.05-.31.04-.33.04-.34.03-.34.04-.35.02-.26.02-.27.02-.27.02-.27.02-.28.02-.28.02-.28.02-.29.01-.3.02-.29v-.3l.01-.3v-.92l-.01-.31-.01-.31-.02-.32-.02-.31-.03-.32-.04-.32-.04-.32-.04-.32-.06-.32-.06-.32-.07-.33-.07-.32-.08-.32-.1-.32-.1-.33-.1-.32-.12-.32-.13-.32-.1-.23-3.41-4.56-.14-.12-.25-.2-.25-.2-.25-.18-.25-.18-.25-.17-.25-.17-.26-.16-.25-.15-.25-.15-.25-.14-.26-.13-.25-.13-.24-.12-.25-.12-.24-.11-.25-.11-.23-.1-.24-.09-.23-.09-.23-.09-.22-.08-.22-.08-.21-.07-.21-.06-.2-.07h-.02l-.34.03-.98.09-.87.07-.08.1-.41.53-.42.52-.42.51-.44.5-.44.49-.45.48-.46.48-.46.46-.47.46-.48.45-.49.44-.49.43-.5.42-.51.41-.51.4-.52.4-.53.38-.54.38-.49.33-.5.32-.5.31-.5.29-.51.29-.51.27-.52.26-.52.26-.53.24-.54.23-.54.23-.55.21-.56.21-.57.2-.57.19-.58.19-.6.18-.6.17-.61.17-.62.16-.64.15-.64.15-.66.15-.66.15-.68.14-.7.13-.7.14-.72.13-.73.13-.75.13-.76.12-.77.13-.79.12-.81.13-.82.13-.84.12-.85.13-.87.13-.89.13-.91.13-.43.07-.43.06-.42.06-.41.06-.4.05-.39.05-.39.06-.38.04-.37.05-.37.05-.36.04-.36.05-.36.04-.35.04-.35.04-.34.03-.34.04-.34.03-.34.04-.34.03-.34.03-.34.04-.34.03-.34.03-.35.03-.34.03-.35.03-.35.03-.36.02-.35.03-.37.03-.37.03-.37.03-.38.03-.39.02-.4.03-.4.03-.41.03-.42.03-.43.04-.2.01-.2.01-.21.02-.21.01-.21.02-.21.02-.22.01-.22.02-.22.01-.22.02-.23.02-.23.01-.23.02-.24.02-.23.02-.25.01-.24.02-.25.02-.25.02-.26.02-.25.02-.27.02-.26.02-.27.02-.27.02-.27.02-.28.02-.28.02-.29.03-.29.02-.29.02-.3.03-.3.02-.3.02-.31.03-.32.02-.31.03-.32.03-.33.02-.32.03-.35.03-.35.03-.34.02-.34.03-.33.03-.33.03-.33.03-.33.02-.32.03-.33.03-.31.03-.32.02-.31.03-.31.03-.31.02-.31.03-.3.03-.3.02-.3.03-.3.03-.29.02-.29.03-.29.02-.29.03-.28.03-.28.02-.28.03-.28.02-.28.03-.27.02-.27.03-.27.02-.27.03-.26.02-.27.02-.26.03-.26.02-.26.03-.26.02-.25.02-.55.05-.54.06-.52.05-.52.05-.52.04-.5.05-.49.05-.49.04-.48.05-.47.04-.47.04-.46.04-.45.04-.44.04-.44.04-.44.03-.42.04-.43.03-.41.03-.41.03-.41.03-.4.03-.4.03-.39.02-.39.02-.39.03-.38.02-.38.02-.38.01-.37.02-.37.02-.37.01-.36.01-.37.01-.36.01-.36.01h-.36l-.36.01h-1.4l-.22-.01h-.46l-.22-.01h-.23l-.23-.01-.22-.01h-.23l-.23-.01-.22-.01-.23-.01-.23-.01-.22-.01-.23-.01-.23-.01-.22-.01-.23-.02-.23-.01-.22-.01-.23-.02-.22-.01-.23-.02-.23-.02-.22-.01-.23-.02-.22-.02-.23-.02-.23-.02-.22-.02-.23-.02-.22-.02-.23-.03-.22-.02-.23-.02-.23-.03-.22-.02-.23-.03-.44-.05-.45-.05-.43-.05-.44-.05-.43-.06-.42-.06-.42-.05-.41-.06-.41-.07-.4-.06-.4-.06-.4-.07-.38-.06-.39-.07-.38-.07-.38-.07-.37-.08-.36-.07-.37-.08-.35-.07-.36-.08-.34-.08-.35-.08-.34-.09-.33-.08-.33-.09-.33-.09-.32-.09-.32-.09-.31-.09-.31-.09-.31-.1-.3-.1-.3-.09-.29-.1-.29-.11-.28-.1-.28-.1-.28-.11-.27-.11-.28-.11-.27-.11-.26-.11-.25-.12-.26-.11-.24-.11-.24-.12-.23-.11-.23-.12-.22-.12-.22-.11-.21-.12-.21-.11-.2-.12-.2-.12-.19-.11-.19-.12-.18-.12-.18-.11-.17-.12-.17-.12-.17-.11-.16-.12-.15-.11-.16-.11-.15-.12-.14-.11-.14-.11-.14-.11-.13-.11-.13-.11-.13-.11-.12-.11-.12-.11-.12-.1-.12-.11-.11-.1-.11-.1-.1-.1-.1-.1-.4-.39-.39-.4-.38-.41-.38-.42-.37-.44-.37-.45-.36-.45-.35-.47-.35-.48-.34-.49-.32-.49-.32-.51-.31-.51-.3-.53-.29-.53-.27-.53-.27-.55-.25-.55-.23-.55-.23-.56-.21-.57-.2-.57-.18-.58-.16-.58-.15-.58-.13-.58-.12-.59-.09-.59-.08-.6-.06-.59-.04-.59-.02-.6v-.6l.02-.59.04-.59.07-.6.09-.59.11-.59.13-.59.16-.58.09-.32.1-.3.11-.3.11-.29.11-.28.12-.28.12-.26.13-.26.13-.25.13-.25.14-.23.14-.23.14-.23.15-.22.15-.21.16-.21.15-.2.16-.2.16-.19.17-.19.16-.18.17-.18.17-.17.18-.18.17-.16.18-.17.17-.16.18-.15.18-.16.18-.15.19-.15.18-.15.18-.14.19-.14.19-.15.18-.14.19-.14.18-.13.19-.14.19-.14.14-.11.15-.11.15-.11.15-.11.15-.12.15-.11.16-.12.15-.12.16-.12.16-.12.16-.12.15-.13.17-.13.16-.13.16-.14.17-.14.16-.14.17-.14.17-.15.17-.15.17-.16.18-.16.17-.16.18-.17.18-.17.17-.18.19-.18.18-.19.18-.19.19-.2.19-.2.19-.21.19-.21.19-.22.2-.22.19-.23.2-.24.2-.25.21-.25.2-.25.23-.3.22-.3.22-.3.22-.3.22-.31.22-.3.21-.31.21-.31.2-.31.21-.31.2-.32.19-.31.2-.32.19-.32.19-.32.19-.32.18-.32.19-.33.18-.33.17-.32.18-.33.17-.33.16-.34.17-.33.16-.34.16-.33.16-.34.15-.34.15-.34.15-.34.15-.35.14-.34.14-.35.14-.34.13-.35.13-.35.13-.35.13-.36.12-.35.12-.35.06-.19.06-.18.05-.18.06-.18.05-.17.05-.17.04-.16.05-.16.04-.16.05-.15.04-.16.03-.15.04-.15.04-.14.03-.15.03-.14.03-.14.03-.14.03-.14.03-.14.02-.14.03-.14.02-.13.03-.14.02-.14.02-.14.02-.14.03-.14.02-.15.02-.14.02-.15.02-.15.02-.15.02-.15.01-.15.02-.16.02-.16.02-.17.02-.16.02-.18.02-.14.02-.15.02-.15.02-.15.02-.15.01-.16.03-.16.02-.17.02-.17.02-.17.02-.17.03-.18.02-.18.03-.19.02-.19.03-.19.03-.2.03-.2.03-.21.03-.21.03-.21.03-.22.04-.22.03-.23.04-.23.04-.24.04-.24.04-.24.04-.25.04-.26.05-.26.04-.27.05-.27.05-.28.05-.28.05-.29.06-.29.05-.3.06-.31.06-.31.15-.74.14-.73.14-.7.13-.69.14-.67.13-.66.13-.64.12-.62.13-.6.12-.59.12-.58.12-.56.12-.55.12-.53.12-.52.12-.5.12-.49.12-.48.12-.47.13-.45.12-.44.13-.43.12-.42.13-.41.13-.4.13-.39.14-.38.14-.37.14-.36.15-.36.15-.34.15-.34.16-.33.16-.32.16-.32.18-.31.17-.3.18-.3.19-.29.2-.29.23-.33.24-.33.24-.31.24-.31.24-.29.24-.29.24-.27.24-.27.25-.26.24-.24.25-.24.24-.23.25-.23.24-.21.25-.21.24-.2.25-.19.24-.19.25-.18.24-.18.25-.16.24-.17.25-.15.24-.16.25-.14.24-.15.24-.13.25-.14.24-.13.24-.13.24-.12.24-.12.23-.12.24-.11.24-.11.23-.11.23-.11.24-.11.23-.11.23-.1.19-.09.2-.09.19-.09.2-.1.19-.09.2-.09.19-.09.2-.1.19-.09.2-.1.19-.1.2-.1.2-.11.19-.1.2-.11.2-.11.19-.12.2-.12.2-.12.2-.12.2-.13.2-.13.21-.14.2-.14.21-.15.2-.15.21-.16.21-.16.21-.17.21-.17.22-.18.21-.19.22-.19.22-.2.22-.2.22-.22.23-.22.22-.22.23-.24.24-.24.36-.4.36-.4.35-.4.33-.4.33-.41.31-.41.31-.4.29-.41.29-.4.27-.41.27-.4.25-.4.25-.4.23-.39.23-.4.22-.38.21-.39.2-.38.2-.37.18-.37.18-.36.17-.36.16-.34.15-.35.15-.33.14-.32.13-.32.12-.3.12-.3.11-.29.11-.27.09-.27.1-.25.08-.24.08-.23.07-.21.07-.2.06-.19.06-.17.05-.16.14-.41.12-.41.12-.41.12-.4.11-.4.1-.39.09-.39.1-.38.08-.39.08-.37.08-.38.07-.37.06-.36.06-.36.06-.36.05-.35.05-.36.04-.34.04-.34.04-.34.03-.34.03-.33.03-.33.03-.32.02-.32.02-.32.01-.32.02-.31.01-.3.01-.31.01-.3.01-.29v-.29l.01-.29v-.29l.01-.28v-1.4l.01-.31v-.61l.01-.31v-.3l.01-.31.02-.3.01-.31.02-.3.02-.3.02-.3.03-.29.04-.3.04-.29.04-.29.05-.29.06-.29.06-.28.07-.28.08-.27.08-.27.1-.27.1-.27.11-.25.11-.26.13-.25.14-.25.15-.24.15-.23.17-.24.18-.22.19-.22.21-.21.21-.21.23-.2.24-.2.26-.19.27-.18.28-.17.19-.11.19-.1.2-.1.19-.09.2-.09.2-.08.2-.08.2-.07.21-.06.21-.06.2-.05.21-.05.21-.04.22-.04.21-.03.22-.02.21-.02.22-.02h.22l.23-.01.22.01.22.01.23.01.23.02.23.03.23.03.23.04.24.04.23.05.24.05.24.06.24.07.24.07.24.07.25.09.24.08.25.1.25.1.25.1.25.11.25.11.24.12.25.13.26.12.25.14.26.14.26.15.27.15.27.16.27.16.27.17.28.18.28.18.29.19.29.19.29.2.29.21.3.21.3.22.31.23.31.23.31.24.32.24.32.25.33.26.33.26.33.27.34.28.34.28.34.29.35.3.07.06.07-.07.18-.2.18-.2.19-.2.18-.2.19-.21.19-.21.19-.21.19-.21.2-.22.19-.21.2-.22.2-.23.2-.22.21-.23.2-.22.21-.23.2-.24.21-.23.21-.24.21-.23.22-.24.21-.24.22-.25.45-.51.46-.51.47-.52.47-.53.47-.53.48-.53.49-.54.49-.55.49-.54.5-.55.51-.56.51-.55.51-.56.52-.56.52-.56.53-.56.53-.57.53-.56.54-.56.55-.57.55-.56.55-.56.55-.56.56-.56.56-.56.57-.56.57-.55.57-.55.58-.55.58-.54.58-.54.59-.54.59-.53.59-.53.59-.52.6-.51.6-.52.6-.5.61-.5.61-.49 1.26-1.01 1.26-.99 1.24-.98 1.24-.95 1.22-.95 1.21-.92 1.21-.91 1.19-.9 1.19-.88 1.17-.86 1.17-.86 1.16-.84 1.15-.82 1.15-.82 1.13-.8 1.13-.79 1.12-.78 1.12-.76 1.11-.76 1.1-.75 1.1-.74 1.09-.73 1.09-.72 1.08-.71 1.08-.7 1.07-.7 1.07-.69 1.06-.68 1.07-.68 1.06-.67 1.05-.67 1.06-.66 1.05-.66 1.05-.65 1.04-.65 1.05-.64 1.05-.65 1.04-.64 1.04-.64 1.05-.64 3.03-1.85 2.96-1.81 2.88-1.76 2.81-1.72 2.73-1.67 2.67-1.63 2.59-1.58 2.53-1.54 2.45-1.5 2.39-1.45 2.32-1.41 2.26-1.37 2.19-1.33 2.12-1.29 2.07-1.24 2-1.21 1.94-1.17 1.88-1.13 1.82-1.09 1.76-1.05 1.71-1.01 1.65-.98 1.6-.94 1.54-.9 1.48-.87 1.44-.83 1.38-.8 1.34-.76 1.28-.73 1.24-.69 1.19-.67 1.14-.63 1.1-.59 1.05-.57 1.01-.53.97-.5.92-.47.89-.45.84-.41.81-.38 1.59-.74 1.6-.73 1.6-.72 1.6-.71 1.61-.69 1.61-.69 1.61-.67 1.62-.67 1.62-.65 1.63-.64 1.63-.63 1.64-.62 1.64-.61 1.65-.6 1.65-.59 1.66-.58 1.66-.57 1.67-.56 1.67-.55 1.68-.53 1.68-.53 1.69-.52 1.7-.51 1.7-.49 1.71-.49 1.71-.48 1.72-.46 1.73-.46 1.73-.44 1.74-.44 1.75-.43 1.76-.41 1.76-.41 1.77-.4 1.77-.39 1.79-.37 1.79-.37 1.8-.36 1.8-.35 1.82-.34 1.62-.29 1.61-.29 1.62-.27 1.61-.27 1.62-.26 1.61-.26 1.62-.24 1.61-.24 1.61-.23 1.61-.23 1.6-.22 1.61-.21 1.61-.2 1.6-.2 1.6-.2 1.6-.19 1.6-.18 1.6-.18 1.6-.17 1.59-.17 1.6-.17 1.59-.16 1.59-.15 1.59-.16 1.58-.15 1.58-.14 1.59-.14 1.58-.14 1.57-.14 1.58-.13 1.57-.14 1.57-.13 1.57-.12 1.57-.13 1.56-.12 1.56-.13 1.56-.12 1.56-.12 1.55-.12 1.55-.12 2.85-.22 2.81-.22 2.77-.21 2.74-.21 2.71-.2 2.67-.19 2.65-.18 2.62-.17 2.59-.17 2.57-.15 2.54-.14 2.53-.12 2.5-.11 2.49-.1 2.48-.07 2.46-.07 2.44-.04 2.44-.02 2.43-.01 2.42.02 2.42.04z" id="a"/></defs><use xlink:href="#a"/><use xlink:href="#a" fill-opacity="0" stroke="#000" stroke-opacity="0"/></svg>